<svg width="640" height="489" viewBox="0 0 640 489" fill="none" xmlns="http://www.w3.org/2000/svg">
<path d="M155 2.31539C255.5 -4.11246 317.5 70.019 317.5 70.019C317.5 70.019 385 -10.1447 478.5 2.31539C613 20.2393 640.112 129.315 601 231.815C572 307.815 389.5 486.519 343 486.519C288.887 486.519 1 331.019 1 163.815C1 76.6679 68.0302 7.87787 155 2.31539Z" fill="#F29CBB" stroke="black"/>
<path d="M176.5 9.01907C277 2.59122 340 78.019 340 78.019C340 78.019 406.5 -3.44101 500 9.01907C634.5 26.9429 661.612 136.019 622.5 238.519C593.5 314.519 396.5 487.519 350 487.519C295.887 487.519 22.4999 309.519 22.5 170.519C22.5001 83.3716 89.5302 14.5816 176.5 9.01907Z" fill="#FFD3E3" stroke="black"/>
<path d="M183 32.0191C276.193 26.3655 339 105.019 339 105.019C339 105.019 416.798 21.0599 503.5 32.019C628.221 47.7838 630 159.519 594 239.019C569.202 293.782 388.808 461.019 345.688 461.019C295.51 461.019 61.7298 300.519 48.5001 192.019C36.5507 94.019 102.354 36.9115 183 32.0191Z" fill="white" stroke="black"/>
<path d="M541 291C605.879 220.889 613.5 166.519 613.5 166.519C613.5 166.519 612.771 214.519 585.5 256.019C562.929 290.367 534.471 317.987 496 355.019C442.5 406.519 368 461.019 346 461.019C335 461.019 326.5 457 326.5 457C326.5 457 387.521 426.196 428 394.519C467 364 510 324.5 541 291Z" fill="#F29CBB" stroke="black"/>
<path d="M340.5 449.5C322.037 447.96 285.5 434.5 257.5 420.5C257.5 420.5 286.637 441.355 317 453.5C324.5 456.5 332.321 459.549 338 460.5C344.5 461.5 347.5 461 347.5 461L340.5 449.5Z" fill="#F29CBB" stroke="black"/>
</svg>
