<svg width="777" height="535" viewBox="0 0 777 535" fill="none" xmlns="http://www.w3.org/2000/svg">
<path d="M298.165 97.9672C345.528 68.2332 386.047 60.076 439.665 75.9672C492.712 91.6892 522.221 119.852 545.665 169.967C565.449 212.257 568.525 243.681 557.165 288.967C542.005 349.404 511.595 388.326 453.165 409.967C395.833 431.202 349.336 421.425 298.165 387.967C239.609 349.68 209.013 299.201 214.665 229.467C219.58 168.834 246.644 130.311 298.165 97.9672Z" fill="#6D6D6D" stroke="black"/>
<path d="M281.718 122.323C321.153 87.2798 357.585 73.368 409.959 79.7723C461.775 86.1084 493.629 107.688 523.264 150.627C548.273 186.861 556.038 215.6 552.533 259.483C547.855 318.047 525.63 358.987 474.634 388.233C424.597 416.93 379.803 415.1 326.965 391.979C266.502 365.521 230.154 323.36 224.534 257.636C219.647 200.489 238.821 160.443 281.718 122.323Z" stroke="black"/>
<path d="M292.704 235.941C293.864 204.787 302.993 183.986 327.639 165.494C352.022 147.199 374.729 143.595 405.832 150.124C432.078 155.633 447.86 164.902 465.548 185.291C489.154 212.501 497.747 239.217 489.235 272.558C480.882 305.272 461.394 322.664 429.26 334.119C392.488 347.228 358.924 343.76 327.897 317.636C300.919 294.92 291.443 269.829 292.704 235.941Z" stroke="black"/>
<path d="M319.697 197.106C337.479 173.86 357.459 160 386.671 160C411.546 160 428.339 166.996 445.352 181.112C465.269 197.639 472.529 219.892 474.693 245.729C477.201 275.681 464.247 297.069 439.611 314.184C414.101 331.906 389.583 332.77 360.519 321.861C330.467 310.581 311.347 292.637 305.027 261.083C299.992 235.949 304.139 217.446 319.697 197.106Z" fill="#FFD3E3" stroke="black"/>
<path d="M615.115 358.863C609.252 356.534 598.867 364.16 598.867 364.16C598.867 364.16 594.423 353.247 584.913 353.053C575.404 352.859 568.959 362.809 569.511 373.521C570.063 384.233 590.597 403.847 590.597 403.847C590.597 403.847 620.97 390.054 624.085 379.461C627.2 368.869 623.269 362.102 615.115 358.863Z" fill="#E3FED6" stroke="black"/>
<path d="M154.353 54.7359C150.006 54.6357 144.545 62.4871 144.545 62.4871C144.545 62.4871 139.585 54.2447 133.177 55.6198C126.768 56.9949 124.02 64.6888 126.086 71.7859C128.152 78.883 145.029 88.788 145.029 88.788C145.029 88.788 163.217 74.7291 163.63 67.1312C164.042 59.5333 161.484 54.9004 154.353 54.7359Z" fill="#BB8ECB" stroke="black"/>
<path d="M182.249 463.392C179.223 461.775 172.584 465.362 172.584 465.362C172.584 465.362 172.023 457.793 167.021 456.482C162.018 455.171 157.346 459.612 156.277 465.345C155.207 471.078 163.57 484.057 163.57 484.057C163.57 484.057 181.38 480.626 184.373 475.422C187.366 470.217 187.212 466.045 182.249 463.392Z" fill="#A7B6D2" stroke="black"/>
<path d="M572.117 111.374C568.744 112 565.797 118.946 565.797 118.946C565.797 118.946 560.634 113.383 555.907 115.482C551.18 117.58 550.303 123.966 553.046 129.113C555.789 134.259 570.424 139.179 570.424 139.179C570.424 139.179 582.196 125.38 581.286 119.446C580.376 113.512 577.651 110.348 572.117 111.374Z" fill="#A7B6D2" stroke="black"/>
<path d="M56.7788 43.1296L58.5251 12L72.059 38.5741L100 37.3086L83.41 53L93.233 87.9259L70.2549 63.1593L55.6873 94V58.3148L26 53L56.7788 43.1296Z" fill="#FFD336" stroke="black"/>
<path d="M640.876 245.296L639.507 221L628.9 241.741L607 240.753L620.003 253L612.304 280.259L630.314 260.929L641.732 285V257.148L665 253L640.876 245.296Z" fill="#FFD336" stroke="black"/>
<path d="M191.147 427.258C189.341 422.441 190.545 414.613 190.545 414.613L231.346 391.292L241.127 400.763C241.127 400.763 304.354 455.412 304.354 460.377C304.354 466.399 299.219 476.344 291.709 483.26C282.353 491.875 266.418 495.905 260.998 494.099C255.372 492.223 240.495 477.616 227.879 465.195C215.52 453.026 197.169 431.473 197.169 431.473C197.169 431.473 192.155 429.946 191.147 427.258Z" fill="#FFC6CD" stroke="black"/>
<path d="M250.634 447.294C251.236 445.487 256.053 441.272 257.257 441.272C259.153 441.273 260.649 443.14 260.268 444.283C259.666 446.089 254.849 450.305 253.644 450.305C251.982 450.305 250.433 447.896 250.634 447.294Z" fill="#FF8795" stroke="black"/>
<path d="M269.903 466.563C270.505 464.757 275.322 460.541 276.527 460.542C278.423 460.542 279.918 462.41 279.538 463.552C278.935 465.359 274.118 469.574 272.914 469.574C271.251 469.574 269.702 467.165 269.903 466.563Z" fill="#FF8795" stroke="black"/>
<path d="M273.516 449.703C274.118 447.896 278.935 443.681 280.14 443.681C282.036 443.681 283.531 445.549 283.151 446.692C282.549 448.498 277.731 452.713 276.527 452.713C274.864 452.714 273.315 450.305 273.516 449.703Z" fill="#FF8795" stroke="black"/>
<path d="M262.677 459.337C263.279 457.531 268.096 453.315 269.301 453.316C271.197 453.316 272.692 455.184 272.311 456.326C271.709 458.133 266.892 462.348 265.688 462.348C264.025 462.348 262.476 459.939 262.677 459.337Z" fill="#FF8795" stroke="black"/>
<path d="M251.838 468.972C252.44 467.165 257.257 462.95 258.462 462.95C260.358 462.95 261.853 464.818 261.473 465.961C260.871 467.767 256.053 471.983 254.849 471.983C253.186 471.983 251.637 469.574 251.838 468.972Z" fill="#FF8795" stroke="black"/>
<path d="M267.494 443.681C268.096 441.874 272.914 437.659 274.118 437.659C276.014 437.66 277.51 439.527 277.129 440.67C276.527 442.476 271.709 446.692 270.505 446.692C268.842 446.692 267.293 444.283 267.494 443.681Z" fill="#FF8795" stroke="black"/>
<path d="M256.655 453.316C257.258 451.509 262.075 447.294 263.279 447.294C265.175 447.294 266.671 449.162 266.29 450.305C265.688 452.111 260.871 456.326 259.666 456.326C258.003 456.327 256.455 453.918 256.655 453.316Z" fill="#FF8795" stroke="black"/>
<path d="M245.816 462.95C246.418 461.144 251.236 456.928 252.44 456.929C254.336 456.929 255.832 458.797 255.451 459.939C254.849 461.746 250.031 465.961 248.827 465.961C247.164 465.961 245.615 463.552 245.816 462.95Z" fill="#FF8795" stroke="black"/>
<path d="M239.794 455.724C240.397 453.918 245.214 449.702 246.418 449.703C248.314 449.703 249.81 451.571 249.429 452.713C248.827 454.52 244.01 458.735 242.805 458.735C241.142 458.735 239.594 456.326 239.794 455.724Z" fill="#FF8795" stroke="black"/>
<path d="M261.472 437.659C262.075 435.853 266.892 431.637 268.096 431.638C269.992 431.638 271.488 433.506 271.107 434.648C270.505 436.455 265.688 440.67 264.483 440.67C262.82 440.67 261.272 438.261 261.472 437.659Z" fill="#FF8795" stroke="black"/>
<path d="M230.267 431.055C230.87 427.442 235.295 422.875 240.504 423.226C242.212 423.342 243.169 423.704 244.72 424.431C247.44 425.706 249.265 428.612 249.537 431.055C250.139 436.474 248.332 438.883 245.322 440.689C241.894 442.746 239.238 443.128 235.687 441.291C232.676 439.734 229.464 435.872 230.267 431.055Z" fill="#FF8795" stroke="black"/>
<path d="M233.901 382.698L191.749 411.602L187.534 413.408C187.534 413.408 141.167 355.601 135.748 342.955C132.135 334.526 142.21 321.776 153.21 315.255C162.023 310.031 176.695 308.861 179.104 311.04C191.749 322.481 233.901 382.698 233.901 382.698Z" fill="#FFC6CD" stroke="black"/>
<path d="M222.46 448.936L239.32 465.195" stroke="black"/>
<path d="M247.751 472.421C247.751 472.421 260.396 485.367 263.407 486.873C266.418 488.378 268.827 488.077 268.827 488.077M274.246 486.27C274.246 486.27 277.257 486.27 279.666 485.066C282.074 483.862 289.902 477.238 289.902 477.238" stroke="black"/>
<path d="M238.718 389.322C235.995 386.367 229.686 385.709 229.686 385.709L188.739 413.408C188.739 413.408 195.63 415.779 197.771 420.032C199.674 423.813 197.771 430.871 197.771 430.871L241.127 400.763C241.127 400.763 241.813 392.679 238.718 389.322Z" fill="#FF8795" stroke="black"/>
<path d="M229.54 396.11C227.46 392.782 222.314 390.69 222.314 390.69L198.83 406.949C198.83 406.949 202.787 409.376 204.851 413.573C206.686 417.303 206.658 424.412 206.658 424.412L231.949 406.949C231.949 406.949 232.551 400.927 229.54 396.11Z" fill="#CE5564" stroke="black"/>
<path d="M203.045 410.562L227.131 393.701" stroke="black"/>
<path d="M206.056 415.981L230.744 399.121" stroke="black"/>
<path d="M204.395 430.871L214.029 441.108" stroke="black"/>
<path d="M148.393 346.568C149.849 343.028 181.363 322.846 185.728 323.685C189.366 324.385 212.825 358.398 212.825 360.522C212.824 364.062 179.004 385.212 176.093 384.504C173.183 383.796 147.437 348.893 148.393 346.568Z" fill="#FF8795" stroke="black"/>
<path d="M195.234 386.244C195.744 384.965 206.489 377.148 208.017 377.451C209.29 377.704 213.282 384.869 213.282 385.636C213.281 386.914 201.445 394.553 200.427 394.297C199.408 394.041 194.9 387.083 195.234 386.244Z" fill="#FF8795" stroke="black"/>
<path d="M222.977 422.615C223.486 421.336 232.288 414.483 233.816 414.787C235.089 415.039 236.224 416.428 236.224 417.195C236.224 418.474 225.802 425.881 224.783 425.626C223.765 425.37 222.642 423.455 222.977 422.615Z" fill="#FF8795" stroke="black"/>
<path d="M153.21 348.977C154.415 345.966 182.115 327.789 185.727 328.503C188.739 329.098 208.008 358.009 208.008 359.816C208.007 362.826 177.899 380.289 175.491 379.687C173.082 379.085 152.419 350.955 153.21 348.977Z" fill="#CE5564" stroke="black"/>
<path d="M159.232 324.288C162.628 322.139 168.265 320.327 168.867 321.277C169.631 322.481 165.334 326.196 162.243 328.503C158.488 331.305 152.006 333.922 151.404 332.718C150.7 331.308 155.837 326.436 159.232 324.288Z" fill="#FF8795" stroke="black"/>
<path d="M191.749 411C191.749 411 145.382 352.589 139.963 340.546C139.094 338.616 139.963 335.127 139.963 335.127" stroke="black"/>
<path d="M244.108 416.633C244.538 415.429 246.284 414.556 247.721 414.826C249.158 415.097 250.426 416.438 250.13 418.439C249.805 420.634 248.032 421.511 245.915 420.848C243.908 420.219 243.401 418.614 244.108 416.633Z" fill="#CE5564"/>
<path d="M253.627 426.218C254.183 424.406 256.064 423.15 257.842 423.809C259.521 424.432 260.776 426.313 260.251 428.025C259.694 429.837 257.29 430.807 255.513 430.148C253.834 429.525 253.257 427.422 253.627 426.218Z" fill="#CE5564"/>
<path d="M229.054 443.73C230.209 442.534 231.876 442.823 233.269 443.73C234.195 444.333 234.94 447.248 233.269 448.548C231.97 449.558 230.293 449.632 229.054 448.548C227.638 447.309 227.748 445.084 229.054 443.73Z" fill="#CE5564"/>
<path d="M224.121 438.864C222.916 439.71 220.267 439.466 219.303 438.261C218.34 437.057 218.351 434.998 219.303 434.046C220.508 432.842 222.916 432.24 224.121 434.046C225.325 435.853 225.325 438.017 224.121 438.864Z" fill="#CE5564"/>
<path d="M244.108 416.633C244.538 415.429 246.284 414.556 247.721 414.826C249.158 415.097 250.426 416.438 250.13 418.439C249.805 420.634 248.032 421.511 245.915 420.848C243.908 420.219 243.401 418.614 244.108 416.633Z" stroke="black"/>
<path d="M253.627 426.218C254.183 424.406 256.064 423.15 257.842 423.809C259.521 424.432 260.776 426.313 260.251 428.025C259.694 429.837 257.29 430.807 255.513 430.148C253.834 429.525 253.257 427.422 253.627 426.218Z" stroke="black"/>
<path d="M229.054 443.73C230.209 442.534 231.876 442.823 233.269 443.73C234.195 444.333 234.94 447.248 233.269 448.548C231.97 449.558 230.293 449.632 229.054 448.548C227.638 447.309 227.748 445.084 229.054 443.73Z" stroke="black"/>
<path d="M224.121 438.864C222.916 439.71 220.267 439.466 219.303 438.261C218.34 437.057 218.351 434.998 219.303 434.046C220.508 432.842 222.916 432.24 224.121 434.046C225.325 435.853 225.325 438.017 224.121 438.864Z" stroke="black"/>
<path d="M236.164 432.24C236.766 429.831 238.114 429.244 239.777 429.229C241.613 429.213 243.39 431.035 243.39 432.842C243.39 434.648 241.282 436.471 239.777 436.455C238.114 436.437 235.562 434.648 236.164 432.24Z" fill="#CE5564" stroke="black"/>
<path d="M176.277 364.878C173.066 363.004 170.858 357.05 170.858 357.05C170.858 357.05 166.34 354.404 168.119 352.152C169.577 350.306 172.936 351.549 172.936 351.549L181.367 346.13C181.367 346.13 181.077 341.055 183.776 341.915C185.982 342.618 187.116 345.609 187.116 345.609C187.116 345.609 192.601 350.029 193.138 354.039C194.178 361.797 183.038 368.823 176.277 364.878Z" fill="#FFEACB" stroke="black"/>
<circle cx="1.20433" cy="1.20433" r="1.20433" transform="matrix(1 0 0 -1 177.152 360.582)" fill="black"/>
<circle cx="1.20433" cy="1.20433" r="1.20433" transform="matrix(1 0 0 -1 186.786 354.56)" fill="black"/>
<path d="M184.378 359.378L186.184 358.173" stroke="black"/>
<path d="M582.91 451.124C585.259 445.968 591.068 439.052 591.068 439.052L600.68 431.816C600.68 431.816 605.943 434.054 609.991 438.012C614.14 442.069 617.809 446.484 620.588 451.578C628.134 465.409 640.104 472.649 640.104 472.649L622.33 468.204L618.144 487.999C618.144 487.999 617.065 467.752 611.403 460.236C608.087 455.833 603.698 455.469 601.065 450.626C599.559 447.856 598.988 443.726 598.776 440.638C598.812 443.16 598.798 446.311 598.588 448.579C597.848 456.574 592.999 460.148 591.505 468.037C590.771 471.912 591.779 475.034 591.763 480.549C591.771 480.907 591.756 481.302 591.718 481.728C591.204 489.097 586.43 499.988 586.43 499.988C586.43 499.988 586.278 491.159 585.681 485.876C585.294 482.441 583.91 477.666 583.91 477.666L575.646 492.042C575.646 492.042 575.817 471.677 579.108 465.299C581.117 461.407 580.561 456.28 582.91 451.124Z" fill="#E2C2EE"/>
<path d="M586.43 499.988C586.43 499.988 591.742 487.869 591.763 480.549M586.43 499.988C586.43 499.988 591.889 485.973 591.763 480.549M586.43 499.988C586.43 499.988 586.278 491.159 585.681 485.876C585.294 482.441 583.91 477.666 583.91 477.666L575.646 492.042C575.646 492.042 575.817 471.677 579.108 465.299C581.117 461.407 580.561 456.28 582.91 451.124C585.259 445.968 591.068 439.052 591.068 439.052L600.68 431.816C600.68 431.816 605.943 434.054 609.991 438.012C614.14 442.069 617.809 446.484 620.588 451.578C628.134 465.409 640.104 472.649 640.104 472.649L622.33 468.204L618.144 487.999C618.144 487.999 617.065 467.752 611.403 460.236C608.087 455.833 603.698 455.469 601.065 450.626C598.385 445.695 598.664 436.456 598.664 436.456C598.664 436.456 598.995 444.18 598.588 448.579C597.848 456.574 592.999 460.148 591.505 468.037C590.771 471.912 591.779 475.034 591.763 480.549" stroke="black"/>
<path d="M601.987 428.941C604.398 424.161 606.765 421.654 611.399 418.973C616.855 415.816 623.556 410.968 627.275 416.058C629.29 418.815 627.736 422.745 628.335 424.737C628.934 426.728 633.915 430.766 633.011 435.12C631.731 441.28 624.358 440.811 618.075 441.165C611.936 441.51 608.003 440.446 602.876 437.05C600.942 438.873 597.926 439.16 594.283 438.395C590.552 442.346 587.729 444.169 582.593 445.945C576.609 448.015 569.611 452.242 566.402 446.784C564.316 443.236 567.306 438.445 567.275 436.282C567.245 434.119 561.99 429.49 564.108 425.756C566.423 421.674 571.335 423.545 576.002 424.039C580.617 424.527 587.16 428.127 587.16 428.127L593.309 430.001C596.864 427.38 599.568 428.118 601.987 428.941Z" fill="#E2C2EE"/>
<path d="M601.987 428.941C604.398 424.161 606.765 421.654 611.399 418.973C616.855 415.816 623.556 410.968 627.275 416.058C629.29 418.815 627.736 422.745 628.335 424.737C628.934 426.728 633.915 430.766 633.011 435.12C631.731 441.28 624.358 440.811 618.075 441.165C611.936 441.51 608.003 440.446 602.876 437.05M601.987 428.941C603.213 431.985 603.47 432.838 602.876 437.05M601.987 428.941C599.568 428.118 596.864 427.38 593.309 430.001M602.876 437.05C600.942 438.873 597.926 439.16 594.283 438.395M593.309 430.001C592.458 433.359 592.772 435.436 594.283 438.395M593.309 430.001C590.908 429.269 587.16 428.127 587.16 428.127C587.16 428.127 580.617 424.527 576.002 424.039C571.335 423.545 566.423 421.674 564.108 425.756C561.99 429.49 567.245 434.119 567.275 436.282C567.306 438.445 564.316 443.236 566.402 446.784C569.611 452.242 576.609 448.015 582.593 445.945C587.729 444.169 590.552 442.346 594.283 438.395" stroke="black"/>
<path d="M613.823 426C609.659 425.877 602.956 431.131 602.956 431.131L603.186 432.924C603.186 432.924 616.79 435.346 617.753 429.782C618.206 427.163 616.64 426.083 613.823 426Z" fill="#BB8ECB" stroke="black"/>
<path d="M583.578 431.688C587.561 430.489 592.657 432.989 592.657 432.989L592.687 435.152C592.687 435.152 588.049 436.237 584.779 438.772C583.275 439.938 581.762 439.059 580.224 437.04C578.686 435.021 579.595 432.886 583.578 431.688Z" fill="#BB8ECB" stroke="black"/>
<path d="M198.179 28.3608C204.441 26.7386 208.223 42.911 208.223 42.911L214.277 41.3428C214.277 41.3428 212.791 24.5755 219.054 22.9533C228.03 20.628 229.169 43.9449 229.169 43.9449C229.169 43.9449 239.736 50.3406 245.889 54.3156C249.74 56.8033 253.205 59.0725 254.075 63.5558C255.163 69.1608 247.586 75.4834 247.586 75.4834C247.586 75.4834 251.168 85.6681 245.642 92.9164C239.166 101.412 216.746 109.074 205.601 101.73C198.02 96.7328 197.749 88.6162 197.749 88.6162C197.749 88.6162 190.607 89.2287 187.684 85.8774C183.248 80.7895 193.148 57.9541 193.148 57.9541C193.148 57.9541 187.95 31.0105 198.179 28.3608Z" fill="#8DCFFF" stroke="black"/>
<path d="M199.142 62.8809C198.444 60.3995 199.259 57.2155 201.81 56.8435C203.944 56.5324 205.405 58.1611 206.232 60.1533C207.244 62.5945 206.88 65.8858 204.352 66.6547C201.948 67.3855 199.822 65.2993 199.142 62.8809Z" fill="white" stroke="black"/>
<path d="M202.848 61.714C202.638 60.977 202.946 60.0137 203.81 59.8758C204.533 59.7604 205.009 60.2337 205.267 60.8227C205.583 61.5443 205.426 62.5352 204.566 62.7919C203.748 63.036 203.052 62.4323 202.848 61.714Z" fill="black" stroke="black"/>
<path d="M223.962 55.458C223.308 53.4287 223.572 51.5098 225.077 50.2167C227.263 48.3385 231.129 50.4016 231.881 53.4065C232.469 55.753 231.661 58.112 229.606 58.948C227.306 59.8841 224.791 58.0354 223.962 55.458Z" fill="white" stroke="black"/>
<path d="M207.376 99.5394C200.691 96.0807 198.705 86.1681 203.767 78.1261C207.78 71.7514 225.042 65.256 236.029 69.2168C242.728 71.6319 248.981 81.4851 244.13 89.931C239.446 98.0857 217.063 104.552 207.376 99.5394Z" fill="white" stroke="black"/>
<path d="M225.285 55.4563C225.075 54.7194 225.383 53.756 226.247 53.6181C226.969 53.5027 227.445 53.976 227.703 54.565C228.019 55.2866 227.863 56.2775 227.002 56.5342C226.184 56.7783 225.489 56.1746 225.285 55.4563Z" fill="black" stroke="black"/>
<path d="M216.3 62.7057C215.753 62.8291 215.076 62.6468 215.033 62.1371C214.997 61.7106 215.372 61.4302 215.815 61.2783C216.359 61.0921 217.066 61.1851 217.195 61.693C217.318 62.1757 216.834 62.5855 216.3 62.7057Z" fill="black" stroke="black"/>
<path d="M211.136 83.8176C209.776 84.3187 209.049 86.8851 209.049 86.8851C209.049 86.8851 210.526 85.6509 211.658 85.2339C212.789 84.8168 214.714 84.7966 214.714 84.7966C214.714 84.7966 212.495 83.3164 211.136 83.8176Z" fill="#8DCFFF" stroke="black"/>
<path d="M233.122 78.1315C231.679 78.2605 230.307 80.5482 230.307 80.5482C230.307 80.5482 232.056 79.7423 233.257 79.6349C234.458 79.5275 236.321 80.0104 236.321 80.0104C236.321 80.0104 234.565 78.0024 233.122 78.1315Z" fill="#8DCFFF" stroke="black"/>
<path d="M221.661 79.3035C219.857 79.7706 218.444 82.3643 218.444 82.3643C218.444 82.3643 220.538 81.1535 222.039 80.7647C223.54 80.376 225.959 80.4176 225.959 80.4176C225.959 80.4176 223.464 78.8364 221.661 79.3035Z" fill="#8DCFFF" stroke="black"/>
<path d="M94.8272 203.884C92.3698 200.545 90.601 190.649 90.601 190.649C90.601 190.649 86.607 199.746 88.2095 206.233C89.8912 213.041 95.5274 216.247 99.0436 222.314C101.526 226.597 102.007 228.411 105.639 231.774C109.158 235.033 116.019 238.407 116.019 238.407C116.019 238.407 113.107 235.463 111.777 233.203C110.561 231.136 108.012 225.638 108.012 225.638C108.012 225.638 116.113 229.696 119.34 230.383C123.146 231.194 129.262 229.457 129.262 229.457C129.262 229.457 115.441 223.542 108.028 217.608C102.222 212.96 99.2355 209.873 94.8272 203.884Z" fill="#A5B89D" stroke="black"/>
<path d="M78.8464 161.812C76.5873 156.434 70.367 149.514 70.367 149.514L74.6219 147.633C74.6219 147.633 83.1945 154.102 87.3536 159.467C90.9986 164.168 93.5636 166.907 94.8864 172.707C96.6329 180.365 92.9638 184.816 91.5422 192.541C90.4879 198.269 88.6802 207.179 88.6802 207.179C88.6802 207.179 83.1155 192.154 81.1697 182.129C79.6483 174.289 81.939 169.175 78.8464 161.812Z" fill="#D1E0CA" stroke="black"/>
<path d="M123.316 126.941C121.274 124.349 115.765 123.148 115.765 123.148L103.471 129.738C103.471 129.738 112.839 130.915 113.852 135.426C114.48 138.22 111.949 142.508 111.949 142.508L115.73 141.57L124.714 136.864C124.714 136.864 125.737 130.015 123.316 126.941Z" fill="#A5B89D" stroke="black"/>
<path d="M119.961 151.97C123.944 147.239 124.714 136.864 124.714 136.864L112.421 142.509C112.421 142.509 108.833 146.629 105.797 148.165C102.117 150.027 99.493 150.56 95.4017 150.034C91.146 149.487 85.4909 145.292 85.4909 145.292L76.0434 145.274L76.9792 149.999L83.5861 153.319C83.5861 153.319 92.4654 158.105 98.6922 158.543C107.364 159.154 114.363 158.622 119.961 151.97Z" fill="#D1E0CA" stroke="black"/>
<path d="M13.2216 143.265C13.6624 138.965 20.3233 134.776 20.3233 134.776L23.6272 136.199C23.6272 136.199 20.994 139.28 21.727 141.864C22.46 144.448 22.6637 146.117 24.5486 148.483C26.4336 150.848 31.6261 152.748 31.6261 152.748C31.6261 152.748 30.6785 154.399 29.7322 155.106C27.84 156.519 25.9523 155.571 23.5914 155.094C21.2407 154.62 17.9274 152.722 17.9274 152.722C17.9274 152.722 12.8009 147.369 13.2216 143.265Z" fill="#A5B89D" stroke="black"/>
<path d="M92.1434 124.52C82.6894 129.24 73.2118 143.851 73.2118 143.851L76.0433 145.274C76.0433 145.274 82.5386 146.666 85.9631 145.293C89.2344 143.981 88.4199 142.477 92.1156 139.164C95.8113 135.85 99.2996 134.467 102.995 131.154C106.691 127.84 119.541 124.572 119.541 124.572C119.541 124.572 110.747 120.68 107.267 120.297C101.172 119.628 97.6299 121.781 92.1434 124.52Z" fill="#D1E0CA" stroke="black"/>
<path d="M54.3394 132.006C60.0719 135.642 66.1245 144.783 66.1245 144.783L66.1191 147.617L58.0942 144.768C58.0942 144.768 50.3143 142.852 45.8206 140.493C40.9208 137.92 40.0149 132.429 34.4999 131.969C29.9595 131.59 23.6273 136.199 23.6273 136.199L15.1174 139.962C15.1174 139.962 24.6271 126.972 29.3154 125.818C32.3816 125.064 34.2345 126.228 37.3439 126.778C44.182 127.987 48.4751 128.287 54.3394 132.006Z" fill="#D1E0CA" stroke="black"/>
<path d="M67.012 175.016C74.5833 167.945 66.1175 148.562 66.1175 148.562L58.5541 151.382C58.5541 151.382 59.8462 159.613 58.5291 164.608C56.833 171.039 51.6927 172.655 49.0548 178.761C45.0709 187.982 45.6998 204.263 45.6998 204.263C45.6998 204.263 54.7966 186.425 67.012 175.016Z" fill="#D1E0CA" stroke="black"/>
<path d="M27.8455 153.685C22.1761 154.147 17.9275 152.722 17.9275 152.722C17.9275 152.722 23.6524 160.945 29.2446 163.135C35.2589 165.491 39.57 164.476 45.7785 162.694C51.0146 161.192 53.7063 159.361 58.0727 156.104C61.3157 153.685 65.6441 149.033 65.6441 149.033L65.6477 147.144L58.0933 145.24C58.0933 145.24 55.2111 145.121 53.3696 145.231C48.4561 145.525 46.1464 147.218 41.5532 148.987C37.8572 150.411 32.0986 152.748 32.0986 152.748C32.0986 152.748 29.1456 153.579 27.8455 153.685Z" fill="#D1E0CA" stroke="black"/>
<path d="M62.8717 145.812C63.4215 142.185 67.029 139.962 71.0856 140.072C76.7295 140.225 77.9235 142.332 78.4044 145.842C78.916 149.575 76.3803 151.351 72.252 151.88C67.5112 152.488 61.9791 151.7 62.8717 145.812Z" fill="#D1E0CA" stroke="black"/>
<path d="M55.6034 212.784C52.4295 206.807 50.4387 196.242 50.4387 196.242L45.7016 203.318C45.7016 203.318 45.4345 209.998 46.1533 214.184C47.4816 221.919 53.4688 224.803 54.1487 232.621C54.6663 238.574 51.7581 247.733 51.7581 247.733C51.7581 247.733 55.652 244.963 57.4364 242.547C59.2509 240.091 60.7565 235.468 60.7565 235.468C60.7565 235.468 64.5439 238.012 66.416 240.203C68.616 242.777 70.653 247.769 70.653 247.769C70.653 247.769 69.3281 233.135 65.0275 225.084C62.1764 219.747 58.4412 218.129 55.6034 212.784Z" fill="#A5B89D" stroke="black"/>
<path d="M510.88 398.297C509.325 399.818 512.436 410.745 512.436 410.745C512.436 410.745 503.987 419.017 505.101 422.081C505.99 424.526 517.892 422.927 517.892 422.927C517.892 422.927 523.328 433.862 526.218 433.195C529.107 432.528 532.118 420.705 532.118 420.705C532.118 420.705 544 418.975 544 416.524C544 414.301 535.109 408.479 535.109 408.479C535.109 408.479 536.665 399.409 535.109 398.297C533.653 397.257 523.894 401.589 523.894 401.589C523.894 401.589 512.436 396.776 510.88 398.297Z" fill="#FFE68F" stroke="black"/>
<path d="M507 422.927L519.004 411.591L528.339 430.929C528.339 430.929 527.581 433.048 526.116 433.152C523.005 433.374 517.67 422.927 517.67 422.927C517.67 422.927 514.997 423.206 512.335 423.372C508.779 423.594 507 422.927 507 422.927Z" fill="#FFD336" stroke="black"/>
<path d="M512.78 398.254L519.004 411.591L507.001 422.927C507.001 422.927 506.167 423.074 505.445 422.483C502.871 420.377 512.335 410.702 512.335 410.702C512.335 410.702 509.223 399.44 511.002 398.254C511.668 397.81 512.78 398.254 512.78 398.254Z" fill="#DEC25F" stroke="black"/>
<path d="M512.557 398.032L528.339 430.929" stroke="black"/>
<path d="M506.778 423.15L519.004 411.591" stroke="black"/>
<path d="M321.301 457.299C321.981 459.588 334.181 462.166 334.181 462.166C334.181 462.166 337.881 474.606 341.425 475.094C344.254 475.484 348.8 463.113 348.8 463.113C348.8 463.113 362.199 463.439 363.032 460.293C363.865 457.146 353.932 448.166 353.932 448.166C353.932 448.166 358.341 435.747 355.962 434.491C353.805 433.352 343.598 438.999 343.598 438.999C343.598 438.999 335.591 432.841 333.715 433.782C331.96 434.663 331.164 446.354 331.164 446.354C331.164 446.354 320.622 455.009 321.301 457.299Z" fill="#FFE68F" stroke="black"/>
<path d="M343.22 473.684L338.367 456.226L361.92 457.073C361.92 457.073 363.587 458.894 362.939 460.369C361.56 463.503 348.687 463.328 348.687 463.328C348.687 463.328 347.587 466.065 346.385 468.734C344.778 472.3 343.22 473.684 343.22 473.684Z" fill="#FFD336" stroke="black"/>
<path d="M322.233 455.433L338.367 456.226L343.22 473.684C343.22 473.684 342.935 474.569 341.991 474.967C338.629 476.386 334.087 462.243 334.087 462.243C334.087 462.243 321.561 459.493 321.322 457.159C321.232 456.284 322.233 455.433 322.233 455.433Z" fill="#DEC25F" stroke="black"/>
<path d="M321.904 455.535L361.92 457.073" stroke="black"/>
<path d="M343.322 474.014L338.367 456.226" stroke="black"/>
<path d="M316.642 69.4109C318.1 67.325 312.151 55.4456 312.151 55.4456C312.151 55.4456 320.063 44.1049 318.118 40.8264C316.565 38.21 303.236 42.6318 303.236 42.6318C303.236 42.6318 294.615 31.2478 291.44 32.6416C288.264 34.0354 287.372 48.2754 287.372 48.2754C287.372 48.2754 274.095 52.8435 274.627 55.6595C275.11 58.2137 286.591 62.9727 286.591 62.9727C286.591 62.9727 286.773 73.7334 288.802 74.6726C290.701 75.5514 300.974 68.4549 300.974 68.4549C300.974 68.4549 315.184 71.4967 316.642 69.4109Z" fill="#FFE68F" stroke="black"/>
<path d="M315.751 40.2665L304.421 55.8993L289.494 35.7057C289.494 35.7057 289.905 33.107 291.565 32.6688C295.093 31.7376 303.492 42.5835 303.492 42.5835C303.492 42.5835 306.502 41.6835 309.525 40.9142C313.563 39.8864 315.751 40.2665 315.751 40.2665Z" fill="#FFD336" stroke="black"/>
<path d="M314.469 69.8726L304.421 55.8993L315.751 40.2665C315.751 40.2665 316.678 39.9173 317.636 40.4394C321.05 42.3001 312.276 55.4728 312.276 55.4728C312.276 55.4728 318.298 67.738 316.512 69.4864C315.842 70.142 314.469 69.8726 314.469 69.8726Z" fill="#DEC25F" stroke="black"/>
<path d="M314.772 70.0797L289.494 35.7057" stroke="black"/>
<path d="M315.959 39.9627L304.421 55.8993" stroke="black"/>
<path d="M660.478 131.407C660.929 130.924 661.203 129.877 661.203 129.877L662.797 130.071C662.797 130.071 662.41 131.399 662.008 132.132C661.582 132.91 660.752 133.598 660.752 133.598L658.69 132.809C658.69 132.809 659.964 131.959 660.478 131.407Z" fill="#D9D9D9" stroke="black"/>
<path d="M670.122 123.875C670.704 123.562 671.299 122.658 671.299 122.658L672.748 123.353C672.748 123.353 671.955 124.486 671.339 125.052C670.686 125.653 669.679 126.038 669.679 126.038L667.979 124.629C667.979 124.629 669.458 124.233 670.122 123.875Z" fill="#6D6D6D" stroke="black"/>
<path d="M669.341 126.921C670.494 125.67 666.851 121.448 665.454 121.815C661.833 122.766 658.485 125.604 658.319 126.975C658.208 127.888 659.794 131.325 662.261 131.624C664.728 131.923 668.188 128.172 669.341 126.921L669.341 126.921Z" fill="#D9D9D9" stroke="black"/>
<path d="M666.952 125.979C667.062 125.073 666.358 124.242 665.381 124.123C664.201 123.98 660.555 126.667 660.787 127.452C661.048 128.338 661.491 128.861 662.357 129.308C662.921 129.599 666.885 126.526 666.952 125.979Z" fill="white" stroke="black"/>
<path d="M642.505 154.578C644.509 153.732 646.227 150.714 646.227 150.714L648.859 151.609C648.859 151.609 647.664 154.085 646.352 155.332C644.389 157.199 639.796 158.564 639.796 158.564L637.523 156.131C637.523 156.131 641.251 155.107 642.505 154.578Z" fill="#D9D9D9" stroke="black"/>
<path d="M635.486 141.712C637.16 150.076 632.222 163.078 632.222 163.078L635.534 163.48C635.534 163.48 643.71 156.418 649.754 157.044C654.858 157.572 658.277 159.473 661.024 163.851C664.258 169.006 662.976 173.405 659.898 178.676C657.162 183.36 649.489 186.934 649.489 186.934C649.489 186.934 647.408 197.901 642.821 203.127C637.085 209.662 630.943 211.834 622.478 210.181C613.288 208.386 607.072 204.232 601.681 198.818C596.229 193.341 594.202 187.39 595.266 179.678C596.298 172.194 600.716 168.648 607.15 164.798C609.862 163.175 613.419 162.454 616.639 162.165C615.725 160.499 614.666 157.679 614.574 153.457C614.453 147.898 612.982 144.423 614.295 139.141C615.689 133.531 619.814 129.616 625.529 129.623C632.348 129.632 634.134 134.953 635.486 141.712Z" fill="#FFC6CD"/>
<path d="M635.534 163.48C635.534 163.48 643.71 156.418 649.754 157.044C654.858 157.572 658.277 159.473 661.024 163.851C664.258 169.006 662.976 173.405 659.898 178.676C657.162 183.36 649.489 186.934 649.489 186.934C649.489 186.934 647.408 197.901 642.821 203.127C637.085 209.662 630.943 211.834 622.478 210.181C613.288 208.386 607.072 204.232 601.681 198.818C596.229 193.341 594.202 187.39 595.266 179.678C596.298 172.194 600.716 168.648 607.15 164.798C613.631 160.919 624.938 162.195 624.938 162.195L635.534 163.48ZM635.534 163.48C635.534 163.48 630.63 171.463 632.665 176.053C634.723 180.693 639.163 181.276 644.179 180.85C648.601 180.474 653.519 175.862 653.519 175.862M632.222 163.078C632.222 163.078 637.16 150.076 635.486 141.712C634.134 134.953 632.348 129.632 625.529 129.623C619.814 129.616 615.689 133.531 614.295 139.141C612.982 144.423 614.453 147.898 614.574 153.457C614.739 161.003 617.99 164.072 617.99 164.072L632.222 163.078Z" stroke="black"/>
<path d="M689.293 144.072C689.768 142.631 690.711 140.468 690.711 140.468L691.517 137.869L688.134 137.459C688.134 137.459 687.19 139.963 686.652 141.594C685.922 143.805 684.976 147.323 684.976 147.323L686.104 150.157L688.423 147.202C688.423 147.202 688.897 145.275 689.293 144.072Z" fill="#9D9D9D" stroke="black"/>
<path d="M667.097 94.4895C671.123 80.8348 681.348 70.3828 692.661 69.0177C701.912 67.9014 711.102 69.8482 719.159 74.3749C727.735 79.1933 729.633 83.8908 733.702 92.3197C739.265 103.843 737.461 113.87 731.364 124.937C724.455 137.479 713.959 143.1 698.552 141.993C688.776 141.29 683.914 136.963 676.727 130.716C664.488 120.078 664.084 104.711 667.097 94.4895Z" fill="#D9D9D9" stroke="black"/>
<path d="M630.452 207.056C627.253 208.198 623.014 207.497 616.907 205.196C612.679 203.602 609.179 201.39 606.899 199.391C601.986 195.085 598.32 192.01 598.061 185.483C597.88 180.949 598.354 177.407 601.925 174.608C608.69 169.308 617.852 172.172 623.673 174.646C632.201 178.272 638.498 184.361 639.085 193.609C639.427 199.006 636.553 204.877 630.452 207.056Z" fill="#F6E9DF" stroke="black"/>
<path d="M622.554 157.557C624.631 157.169 625.297 157.25 627.144 158.753C627.144 158.753 630.936 155.376 635.68 155.312C638.273 155.277 639.805 158.493 639.068 160.839C638.487 162.69 635.429 162.956 635.429 162.956C635.429 162.956 637.996 165.602 637.561 167.691C637.054 170.119 635.056 170.965 632.435 170.907C629.054 170.832 626.008 165.331 626.008 165.331C626.008 165.331 624.97 165.525 623.637 165.363C621.901 165.152 620.234 163.671 620.234 163.671C620.234 163.671 615.416 168.757 611.845 167.77C609.242 167.051 607.599 165.346 607.713 162.792C607.82 160.412 611.581 158.784 611.581 158.784C611.581 158.784 608.884 155.816 609.526 153.419C609.972 151.756 612.652 149.961 615.832 151.625C619.11 153.341 622.554 157.557 622.554 157.557Z" fill="#CE5564"/>
<path d="M627.144 158.753C625.297 157.25 624.631 157.169 622.554 157.557M627.144 158.753C627.144 158.753 629.505 161.598 628.609 163.408C628.133 164.369 626.008 165.331 626.008 165.331M627.144 158.753C627.144 158.753 630.936 155.376 635.68 155.312C638.273 155.277 639.805 158.493 639.068 160.839C638.487 162.69 635.429 162.956 635.429 162.956C635.429 162.956 637.996 165.602 637.561 167.691C637.054 170.119 635.056 170.965 632.435 170.907C629.054 170.832 626.008 165.331 626.008 165.331M622.554 157.557C622.554 157.557 619.787 158.063 619.505 160.385C619.352 161.646 620.234 163.671 620.234 163.671M622.554 157.557C622.554 157.557 619.11 153.341 615.832 151.625C612.652 149.961 609.972 151.756 609.526 153.419C608.884 155.816 611.581 158.784 611.581 158.784C611.581 158.784 607.82 160.412 607.713 162.792C607.599 165.346 609.242 167.051 611.845 167.77C615.416 168.757 620.234 163.671 620.234 163.671M626.008 165.331C626.008 165.331 624.97 165.525 623.637 165.363C621.901 165.152 620.234 163.671 620.234 163.671" stroke="black"/>
<path d="M652.681 142.328C653.132 141.844 653.406 140.798 653.406 140.798L655.001 140.991C655.001 140.991 654.613 142.319 654.211 143.053C653.785 143.831 652.955 144.518 652.955 144.518L650.893 143.729C650.893 143.729 652.167 142.879 652.681 142.328Z" fill="#D9D9D9" stroke="black"/>
<path d="M734.566 40.4915C731.184 41.6992 726.931 41.1836 726.931 41.1836L724.354 44.6465C724.354 44.6465 727.033 45.7091 729.009 46.2897C732.134 47.2081 734.92 46.4674 735.774 43.8741C736.302 42.2728 736.154 39.9246 734.566 40.4915Z" fill="#D9D9D9" stroke="black"/>
<path d="M674.89 96.4775C677.998 85.581 684.167 77.9373 695.722 76.3867C702.705 75.4495 707.011 76.3036 713.064 79.8671C719.508 83.6602 722.554 87.4369 725.579 94.1292C729.715 103.278 730.428 110.795 725.772 119.641C720.496 129.666 712.012 135.419 700.397 134.618C693.027 134.109 688.666 131.638 683.278 126.7C674.102 118.291 671.544 108.213 674.89 96.4775Z" fill="white" stroke="black"/>
<path d="M712.764 69.2846C711.72 69.5621 710.976 70.6858 710.976 70.6858L707.32 69.703C707.32 69.703 710.687 64.1783 714.875 65.2256C718.539 66.142 719.481 71.7173 718.434 75.9051C716.997 81.6499 711.7 86.9543 707.238 83.7164C704.027 81.3861 704.823 76.9512 704.823 76.9512L707.947 77.8696C707.947 77.8696 707.743 79.921 708.688 80.6561C711.153 82.5731 713.792 78.5876 714.713 75.4539C715.631 72.3291 715.551 68.5438 712.764 69.2846Z" fill="#9D9D9D" stroke="black"/>
<path d="M690.034 145.621C693.631 140.947 703.96 146.132 703.96 146.132C703.96 146.132 706.204 136.932 713.431 139.191C728.086 143.771 711.467 164.617 711.467 164.617L714.471 171.506L713.567 174.397L715.283 176.52L714.38 179.411L717.79 182.46L717.383 186.3L720.568 190.072L714.973 197.629L703.584 165.723C703.584 165.723 680.682 157.771 690.034 145.621Z" fill="#9D9D9D" stroke="black"/>
<path d="M675.809 140.321C682.912 138.767 685.244 148.222 685.244 148.222C685.244 148.222 695.135 142.984 699.198 149.531C707.436 162.804 679.471 168.854 679.471 168.854L677.102 175.987L674.43 177.523L675.256 181.044L672.684 181.97L673.421 185.835L671.403 187.748L672.712 191.682L661.542 196.914L672.605 164.362C672.605 164.362 664.085 142.888 675.809 140.321Z" fill="#D9D9D9" stroke="black"/>
<path d="M660.777 134.235C661.384 132.646 656.435 130.075 655.274 130.934C652.264 133.159 650.206 137.037 650.559 138.371C650.795 139.26 653.542 141.864 655.944 141.227C658.347 140.591 660.169 135.825 660.777 134.236L660.777 134.235Z" fill="#D9D9D9" stroke="black"/>
<path d="M658.208 134.246C657.974 133.364 657.013 132.853 656.062 133.105C654.913 133.409 652.523 137.256 653.029 137.9C653.599 138.626 654.205 138.948 655.175 139.041C655.806 139.102 658.35 134.779 658.208 134.246Z" fill="white" stroke="black"/>
<path d="M654.043 145.285C654.65 143.696 649.702 141.124 648.54 141.983C645.53 144.209 643.472 148.086 643.825 149.42C644.061 150.31 646.808 152.913 649.211 152.277C651.613 151.64 653.435 146.874 654.043 145.285L654.043 145.285Z" fill="#D9D9D9" stroke="black"/>
<path d="M651.474 145.296C651.241 144.413 650.279 143.902 649.328 144.154C648.179 144.459 645.789 148.305 646.295 148.949C646.865 149.675 647.471 149.997 648.442 150.09C649.073 150.151 651.616 145.828 651.474 145.296Z" fill="white" stroke="black"/>
<path d="M705.777 149.316C704.649 149.718 703.484 148.217 703.311 147.397C703.311 147.397 704.036 145.867 704.447 144.72C707.034 137.497 701.182 129.333 699.733 132.394C699.444 133.004 699.562 133.772 699.562 133.772L696.399 134.766C696.399 134.766 696.255 131.482 698.316 129.725C703.047 125.692 709.052 136.092 707.61 143.726C707.004 146.935 705.777 149.316 705.777 149.316Z" fill="#9D9D9D" stroke="black"/>
<path d="M684.605 154.83C684.178 153.23 684.357 152.42 685.588 151.173C685.588 151.173 687.905 150.205 689.696 148.435C696.017 142.19 697.461 128.881 694.481 131.217C693.885 131.684 693.16 133.214 693.16 133.214L690.1 131.764C690.1 131.764 692.145 128.236 694.868 128.027C701.116 127.547 698.864 143.078 692.756 149.885C690.189 152.747 684.605 154.83 684.605 154.83Z" fill="#9D9D9D" stroke="black"/>
<path d="M706.768 167.766L715.288 190.913" stroke="black" stroke-width="0.7"/>
<path d="M674.489 167.087L666.143 191.425" stroke="black" stroke-width="0.7"/>
<path d="M714.473 65.1451C712.498 64.9661 710.624 65.7569 709.496 66.1596C708.315 66.5815 709.191 64.0167 709.883 62.9703C710.339 62.2809 712.885 61.7768 714.86 61.9559C717.034 62.153 719.515 63.5992 719.982 64.1952C720.756 65.1827 720.256 66.3858 719.596 67.3845C718.935 68.3831 716.648 65.3422 714.473 65.1451Z" fill="#D9D9D9" stroke="black"/>
<path d="M715.8 60.4886C713.939 60.314 712.184 60.9614 711.128 61.289C710.021 61.6323 710.816 59.472 711.455 58.5945C711.876 58.0164 714.266 57.6195 716.127 57.7941C718.175 57.9862 720.472 59.4811 720.918 59.9909C721.658 60.8357 721.141 62.3428 720.532 63.1802C719.922 64.0177 717.849 60.6807 715.8 60.4886Z" fill="#D9D9D9" stroke="black"/>
<path d="M713.706 56.8391C711.709 55.5181 709.496 34.4541 710.724 32.8652C711.376 32.0216 713.146 31.4468 714.014 32.0657C716.04 33.5099 712.875 43.584 719.003 44.6565C720.701 44.9538 722.414 43.5719 723.046 42.4501C724.904 39.1515 728.237 34.8695 727.754 29.9566C727.378 26.1308 725.498 22.6713 721.682 22.2085C718.688 21.8454 715.513 24.157 714.788 25.6872C713.544 28.3123 713.083 31.9839 711.421 31.2118C709.917 30.5135 709.928 26.8115 711.196 24.1728C712.798 20.8383 714.846 19.0184 718.412 18.0364C722.047 17.0357 724.832 17.5601 727.916 19.7283C732.123 22.6866 732.369 26.4569 732.409 31.5999C732.455 37.4322 728.605 40.5882 726.351 45.9674C724.408 50.604 723.497 57.1569 721.679 57.8061C720.552 58.2087 714.705 57.4996 713.706 56.8391Z" fill="#D9D9D9" stroke="black"/>
<path d="M716.125 50.9019C716.359 50.1032 716.83 49.5446 717.718 49.4357C718.254 49.3698 718.586 49.4344 719.052 49.6986C719.549 49.9798 719.785 50.2584 720.021 50.751C720.342 51.4245 720.4 51.9766 720.046 52.6241C719.645 53.3579 718.995 53.7767 718.102 53.7129C717.535 53.6724 717.199 53.4892 716.783 53.1243C716.074 52.503 715.873 51.7621 716.125 50.9019Z" fill="white" stroke="black"/>
<path d="M652.939 140.202C654.727 138.8 655.328 138.986 655.258 138.865C655.025 138.46 654.701 138.36 654.26 138.204C653.865 138.065 653.197 138.076 653.197 138.076C653.197 138.076 651.793 138.638 650.813 139.944C649.676 141.458 649.169 144.599 649.169 144.599C649.977 145.232 650.446 145.266 651.295 144.857C651.36 144.325 651.151 141.603 652.939 140.202Z" fill="#D9D9D9" stroke="black"/>
<path d="M671.399 121.405C673.213 120.317 678.636 119.726 678.632 119.586C678.617 119.118 678.544 118.804 678.229 118.458C677.947 118.149 677.23 117.798 677.23 117.798C677.23 117.798 673.445 117.878 669.998 119.617C668.308 120.47 665.25 124.719 665.25 124.719C665.662 125.658 666.06 125.91 667.002 125.95C667.31 125.512 669.586 122.494 671.399 121.405Z" fill="#6D6D6D" stroke="black"/>
<path d="M659.854 130.28C661.857 129.209 662.418 129.496 662.37 129.364C662.21 128.925 661.907 128.77 661.5 128.541C661.136 128.336 660.475 128.23 660.475 128.23C660.475 128.23 658.995 128.542 657.804 129.659C656.423 130.954 655.382 133.96 655.382 133.96C656.068 134.723 656.524 134.838 657.432 134.581C657.587 134.069 657.851 131.352 659.854 130.28Z" fill="#D9D9D9" stroke="black"/>
<path d="M604.53 180.357C605.462 179.138 607.155 178.007 608.249 179.084C609.114 179.935 608.855 181.126 608.274 182.192C607.429 183.744 604.861 184.974 603.933 183.47C603.284 182.417 603.778 181.341 604.53 180.357Z" fill="black" stroke="black" stroke-width="0.7"/>
<path d="M627.687 195.61C628.599 194.271 630.317 192.982 631.533 194.054C632.493 194.901 632.289 196.171 631.738 197.328C630.936 199.012 628.302 200.456 627.237 198.925C626.492 197.852 626.951 196.689 627.687 195.61Z" fill="black" stroke="black" stroke-width="0.7"/>
<path d="M614.249 192.722C615.289 193.269 616.402 194.434 615.827 195.476C615.373 196.301 614.475 196.285 613.608 195.994C612.346 195.569 611.005 193.724 611.915 192.746C612.552 192.061 613.411 192.281 614.249 192.722Z" fill="#FFD336" stroke="black" stroke-width="0.7"/>
<path d="M617 302.5C612.754 302.901 606.5 305.5 606.5 305.5L609 332.5C609 332.5 626.091 328.391 630 328.5C648 329 652.5 327.595 660 328.5C662.55 328.808 666.5 329.5 666.5 329.5L661 300C661 300 658.5 301 654 302.5C653.034 302.822 643.5 300 617 302.5Z" fill="#F6E9DF" stroke="black"/>
<path d="M582 331.5L580.125 311.5L576.75 312L576 315.5V320.5L577.125 328.5L578.25 331.5H582Z" fill="#671B22" stroke="black"/>
<path d="M580.5 314.5L588 314L588.5 328H581.5L580.5 314.5Z" fill="#671B22" stroke="black"/>
<path d="M588 311L606.5 305.5L609 332.5L589 330L588 311Z" fill="#BA545B" stroke="black"/>
<path d="M527.319 102.764L584.819 48.2637L588.876 52.4021L531.325 107.188C529.398 107.118 527.991 104.894 527.319 102.764Z" fill="white" stroke="black"/>
<path d="M612.243 20.2947C618.737 25.3486 622.525 30.7872 622.322 39.0139C622.076 49.01 618.982 54.48 610.956 58.9619C605.195 62.1791 599.96 63.3842 593.696 61.3093C585.249 58.5111 578.039 51.2084 577.774 42.3142C577.476 32.2702 580.754 24.184 589.633 19.4792C597.44 15.3425 605.27 14.8687 612.243 20.2947Z" fill="#F14949" stroke="black"/>
<path d="M587.978 20.3219C588.728 19.7919 590.022 19.1587 590.022 19.1587C590.022 19.1587 587.723 18.3774 586.527 19.0372C583.655 20.6216 581.171 24.0163 579.056 26.7637C576.029 30.6952 585.358 41.8697 592.12 49.4201C598.185 56.1918 606.579 62.0478 611.19 60.9885C614.422 60.2458 617.593 57.6682 619.435 55.6268C620.32 54.6471 619.575 51.2028 619.575 51.2028C619.575 51.2028 617.956 53.8329 617.275 54.2738C610.635 58.5733 600.55 47.4835 596.87 43.9369C590.236 37.5416 580.451 25.6384 587.978 20.3219Z" fill="#D73232" stroke="black"/>
<path d="M400.138 455.241C400.138 455.241 423.751 447.718 443.5 447.351C448.101 447.265 453.49 456.618 453.49 456.618C453.49 456.618 456.01 453.614 457.896 452.778C461.85 451.025 463.102 444.351 463.102 444.351C463.102 444.351 476.557 439.252 477 444.351C477.128 445.827 477.103 448.104 476.392 449.403C478.226 450.626 479.682 450.837 481.087 452.535C485.567 457.948 479.758 466.829 472.951 468.546C468.223 469.739 465.825 465.681 461.021 464.82C459.566 464.56 457.273 464.295 457.273 464.295C457.273 464.295 458.123 467.47 457.896 469.506C457.439 473.606 455.955 476.996 452.036 478.291C437.896 482.964 416.977 487.629 416.977 487.629C416.977 487.629 410.074 489.871 407.851 486.902L402.161 479.298L399.41 481.271C399.41 481.271 401.158 489.706 398.47 493.338C395.371 497.527 392.785 496.582 389.415 500.557C388.586 501.536 386.008 500.901 384.854 501.463C383.234 502.253 379.767 497.224 379.767 497.224C379.767 497.224 379.626 492.333 379.306 490.711C378.413 486.191 369.365 479.435 372.256 475.854C374.17 473.483 372.973 475.203 377.339 475.013C381.706 474.823 379.333 476.823 381.511 474.692C384.767 471.505 393.632 472.622 393.632 472.622C393.632 472.622 391.955 471.427 391.154 470.405C386.899 464.978 400.138 455.241 400.138 455.241Z" fill="#8DCFFF"/>
<path d="M400.138 455.241C400.138 455.241 423.751 447.718 443.5 447.351C448.101 447.265 453.49 456.618 453.49 456.618M400.138 455.241C400.138 455.241 386.899 464.978 391.154 470.405C391.955 471.427 393.632 472.622 393.632 472.622M400.138 455.241C400.138 455.241 405.511 456.578 408.548 458.312C411.921 460.238 413.698 461.727 416.113 464.768C419.297 468.777 421.444 471.645 421.401 476.758C421.363 481.343 416.977 487.629 416.977 487.629M383.803 490.325C383.803 490.325 391.158 491.491 394.229 487.407C397.211 483.442 396.111 474.839 396.111 474.839L393.632 472.622M393.632 472.622C393.632 472.622 384.767 471.505 381.511 474.692C379.333 476.823 381.706 474.823 377.339 475.013C372.973 475.203 374.17 473.483 372.256 475.854C369.365 479.435 378.413 486.191 379.306 490.711C379.626 492.333 379.767 497.224 379.767 497.224C379.767 497.224 383.234 502.253 384.854 501.463C386.008 500.901 388.586 501.536 389.415 500.557C392.785 496.582 395.371 497.527 398.47 493.338C401.158 489.706 399.41 481.271 399.41 481.271M397.346 470.021C397.346 470.021 400 473.212 400.348 475.691C400.655 477.881 399.41 481.271 399.41 481.271M399.41 481.271L402.161 479.298M402.034 463.84C402.034 463.84 402.088 468.364 402.821 471.135C403.148 472.368 403.866 474.23 403.866 474.23M403.866 474.23C403.866 474.23 405.285 476.106 404.911 477.325C404.524 478.588 402.161 479.298 402.161 479.298M403.866 474.23L413.514 475.446M402.161 479.298C404.383 482.267 405.629 483.932 407.851 486.902C410.074 489.871 416.977 487.629 416.977 487.629M416.977 487.629C416.977 487.629 437.896 482.964 452.036 478.291C455.955 476.996 457.439 473.606 457.896 469.506C458.123 467.47 457.273 464.295 457.273 464.295M453.49 456.618L456.65 459.084L456.723 459.697M453.49 456.618C453.49 456.618 456.01 453.614 457.896 452.778C461.85 451.025 463.102 444.351 463.102 444.351M463.102 444.351C463.102 444.351 476.557 439.252 477 444.351C477.128 445.827 477.103 448.104 476.392 449.403M463.102 444.351C463.102 444.351 471.581 448.177 476.392 449.403M476.392 449.403C478.226 450.626 479.682 450.837 481.087 452.535C485.567 457.948 479.758 466.829 472.951 468.546C468.223 469.739 465.825 465.681 461.021 464.82C459.566 464.56 457.273 464.295 457.273 464.295M457.273 464.295L456.961 461.689M456.961 461.689C456.961 461.689 462.792 463.632 466.103 462.286C469.935 460.729 472.55 453.892 472.55 453.892M456.961 461.689L456.723 459.697M456.723 459.697C456.723 459.697 461.067 459.142 463.101 457.463C464.798 456.063 466.227 452.778 466.227 452.778" stroke="black"/>
<path d="M381 481.851C379.128 478.287 373 475.351 373 475.351C373 475.351 370.566 476.005 372 479.351C373.5 482.851 378.17 487.274 379 489.351C380 491.851 378.804 494.862 380 497.851C381 500.351 384.5 501.351 384.5 501.351C384.5 501.351 386.107 497.763 386 495.351C385.856 492.122 383.538 490.912 382.5 487.851C381.724 485.563 382.123 483.989 381 481.851Z" fill="#2777B1" stroke="black"/>
<path d="M425 462.351C421.838 456.602 411 452.351 411 452.351L417.5 450.851C417.5 450.851 428.523 453.851 432 462.351C436.5 473.351 431 483.851 431 483.851L425.5 485.351C425.5 485.351 430.5 472.351 425 462.351Z" fill="#E9BFBF" stroke="black"/>
<path d="M441 458.351C437.838 452.602 428 448.851 428 448.851L435 447.851C435 447.851 444.523 449.851 448 458.351C452.5 469.351 447 479.851 447 479.851L441 481.351C441 481.351 446.5 468.351 441 458.351Z" fill="#E9BFBF" stroke="black"/>
<path d="M476.5 443.516C473.488 439.596 463 444.516 463 444.516C463 445.016 475 449.516 476 449.516C476 449.516 478.183 445.705 476.5 443.516Z" fill="#2777B1" stroke="black"/>
<path d="M73.8306 376.297L75.8305 375.097L76.6305 376.697L74.6305 377.497L73.8306 376.297Z" fill="#F8F5E7" stroke="black"/>
<path d="M609.902 92.1586C612.545 88.7657 613.701 75.7778 613.701 75.7778C613.701 75.7778 615.16 89.4181 617 91.5C619.783 94.6489 626 94.3881 626 94.3881C626 94.3881 618.155 96.1735 616.102 98.5904C613.49 101.667 612.5 116 612.5 116C612.5 116 612.57 102.371 610.699 99.1908C609.055 96.3968 599.893 94.3881 599.893 94.3881C599.893 94.3881 607.697 94.9884 609.902 92.1586Z" fill="#FFE68F" stroke="black"/>
<path d="M68.1794 381.421L71.0426 378.838L72.9699 379.324L69.9563 381.615L68.1794 381.421Z" fill="#F8F5E7" stroke="black"/>
<path d="M64.4963 387.347L67.4309 383.097L68.5687 384.067L66.631 387.097L64.4963 387.347Z" fill="#F8F5E7" stroke="black"/>
<path d="M54.1894 384.031L58.647 386.639L57.7653 387.846L54.5984 386.141L54.1894 384.031Z" fill="#F8F5E7" stroke="black"/>
<path d="M48.8753 379.74L52.6361 383.28L51.5067 384.259L48.8017 381.888L48.8753 379.74Z" fill="#F8F5E7" stroke="black"/>
<path d="M59.2749 386.583L64.4325 386.854L64.2034 388.331L60.607 388.27L59.2749 386.583Z" fill="#F8F5E7" stroke="black"/>
<path d="M104.006 414.985C104.079 416.326 104.065 416.541 104.695 417.728C105.35 418.962 106.62 420.744 106.62 420.744L104.906 422.049C104.906 422.049 103.561 420.861 102.914 419.925C101.902 418.46 102.019 417.525 101.4 416.223C101.057 415.5 98.769 414.218 97.8975 412.729C96.9345 411.083 96.2991 409.331 97.2051 407.653C98.1729 405.861 100.257 404.818 102.005 405.864C103.034 406.48 104.423 408.054 104.548 410.182C104.659 412.06 103.979 414.503 104.006 414.985Z" fill="#F8F5E7" stroke="black"/>
<path d="M126.774 416.033C114.596 409.217 107.579 420.794 105.317 421.363C104.22 421.639 96.6301 410.697 84.2303 416.033C73.5113 420.647 73.7341 436.094 80.1046 446.364C88.4673 459.847 106.766 475.587 110.393 475.206C114.02 474.824 125.468 460.827 131.872 448.23C137.372 437.409 139.695 423.265 126.774 416.033Z" fill="#F8F5E7" stroke="black"/>
<path d="M96.5447 383.238C96.5148 382.049 100.182 381.059 100.72 381.833C102.114 383.838 102.548 386.829 102.032 387.692C101.689 388.266 99.3935 389.625 98.029 388.809C96.6647 387.992 96.5747 384.427 96.5447 383.238L96.5447 383.238Z" fill="#F8F5E7" stroke="black"/>
<path d="M98.1511 383.65C98.4924 383.079 99.2072 382.879 99.7477 383.203C100.4 383.593 101.049 386.616 100.59 386.979C100.072 387.388 99.6218 387.514 98.9932 387.426C98.5845 387.368 97.9452 383.994 98.1511 383.65Z" fill="#F8F5E7" stroke="black"/>
<path d="M97.9096 399.019C97.8713 398.597 98.1435 397.96 98.1435 397.96L97.2608 397.432C97.2608 397.432 96.9355 398.256 96.8509 398.785C96.7612 399.346 96.9113 400.02 96.9113 400.02L98.2642 400.43C98.2642 400.43 97.9533 399.5 97.9096 399.019Z" fill="#F8F5E7" stroke="black"/>
<path d="M97.6301 390.92C98.0208 389.754 101.619 390.247 101.824 391.212C102.357 393.712 101.691 396.789 100.931 397.421C100.424 397.843 97.9129 398.252 96.9899 396.919C96.067 395.585 97.2392 392.087 97.63 390.921L97.6301 390.92Z" fill="#F8F5E7" stroke="black"/>
<path d="M98.9093 391.958C99.412 391.539 100.116 391.628 100.482 392.156C100.923 392.794 100.437 395.986 99.9023 396.157C99.2998 396.349 98.8562 396.293 98.33 395.958C97.988 395.74 98.6059 392.21 98.9093 391.958Z" fill="#F8F5E7" stroke="black"/>
<path d="M96.1672 400.037C96.5579 398.871 100.156 399.364 100.362 400.329C100.894 402.828 100.228 405.905 99.4682 406.538C98.9615 406.96 96.45 407.369 95.527 406.035C94.6041 404.702 95.7763 401.204 96.1671 400.037L96.1672 400.037Z" fill="#F8F5E7" stroke="black"/>
<path d="M97.4464 401.074C97.9491 400.656 98.6531 400.744 99.0187 401.273C99.4602 401.911 98.9737 405.103 98.4394 405.273C97.8369 405.466 97.3933 405.41 96.8671 405.075C96.5251 404.857 97.143 401.327 97.4464 401.074Z" fill="#F8F5E7" stroke="black"/>
<path d="M98.5156 397.5C98.3178 395.963 98.1862 395.796 98.2728 395.749C98.562 395.592 98.7563 395.655 99.0295 395.729C99.2739 395.795 99.5779 396.057 99.5779 396.057C99.5779 396.057 100 396.823 100 398C100 399.5 98.5156 401.568 98.5156 401.568C97.8594 401.644 97.7089 401.074 97.5 400.5C97.7083 400.152 98.7134 399.037 98.5156 397.5Z" fill="#F8F5E7" stroke="black"/>
<path d="M99.82 388.995C99.2868 387.569 98.8812 387.511 98.9627 387.453C99.2347 387.263 99.4532 387.294 99.7572 387.325C100.029 387.352 100.405 387.556 100.405 387.556C100.405 387.556 101.009 388.33 101.116 389.457C101.241 390.763 100.448 392.926 100.448 392.926C99.7711 393.093 99.4929 392.977 99.1512 392.464C99.2975 392.104 100.353 390.42 99.82 388.995Z" fill="#F8F5E7" stroke="black"/>
<path d="M85.7279 375.285C84.5935 374.929 84.8444 371.139 85.751 370.88C88.0995 370.21 91.07 370.768 91.7188 371.535C92.1512 372.047 92.6936 374.658 91.4794 375.685C90.2654 376.712 86.8626 375.642 85.7281 375.286L85.7279 375.285Z" fill="#F8F5E7" stroke="black"/>
<path d="M86.6381 373.899C86.2089 373.392 86.2509 372.651 86.7319 372.244C87.3125 371.753 90.3822 372.118 90.5771 372.67C90.797 373.292 90.7705 373.759 90.4833 374.325C90.2966 374.693 86.897 374.205 86.6381 373.899Z" fill="#F8F5E7" stroke="black"/>
<path d="M78.0179 377.861C76.8464 378.064 75.3315 374.581 76.0185 373.935C77.7982 372.263 80.694 371.397 81.6223 371.781C82.2411 372.037 83.9205 374.109 83.3123 375.578C82.7042 377.047 79.1899 377.657 78.0182 377.86L78.0179 377.861Z" fill="#F8F5E7" stroke="black"/>
<path d="M78.1909 376.211C77.5768 375.957 77.2743 375.279 77.5152 374.697C77.806 373.995 80.7014 372.911 81.1276 373.312C81.6084 373.765 81.7989 374.192 81.8033 374.827C81.8061 375.239 78.5615 376.365 78.1909 376.211Z" fill="#F8F5E7" stroke="black"/>
<path d="M92.7921 376.348C92.3486 375.201 95.4332 373.284 96.2072 373.896C98.2124 375.48 99.6636 378.274 99.4824 379.246C99.3616 379.894 97.6894 381.812 96.1277 381.375C94.566 380.937 93.2357 377.496 92.7922 376.348L92.7921 376.348Z" fill="#F8F5E7" stroke="black"/>
<path d="M94.4389 376.33C94.5588 375.687 95.1575 375.306 95.7762 375.48C96.523 375.689 98.1859 378.457 97.8835 378.929C97.5425 379.462 97.1652 379.702 96.5462 379.78C96.1439 379.83 94.3665 376.718 94.4389 376.33Z" fill="#F8F5E7" stroke="black"/>
<path d="M91.519 374.247C89.9982 374.181 89.7862 374.532 89.7654 374.434C89.6959 374.11 89.8104 373.921 89.957 373.653C90.088 373.413 90.4226 373.146 90.4226 373.146C90.4226 373.146 91.5512 372.756 92.6302 373.097C93.8812 373.493 95.3829 375.204 95.3829 375.204C95.2732 375.893 95.0572 376.103 94.4516 376.217C94.1775 375.942 93.0398 374.313 91.519 374.247Z" fill="#F8F5E7" stroke="black"/>
<path d="M83.0303 373.562C81.7138 374.31 81.655 374.6 81.5867 374.529C81.3587 374.29 81.3568 374.069 81.3405 373.764C81.326 373.491 81.469 373.088 81.469 373.088C81.469 373.088 82.2169 372.16 83.3046 371.879C84.5657 371.553 86.7243 372.21 86.7243 372.21C86.9907 372.851 86.9184 373.144 86.4674 373.562C86.0928 373.473 84.3468 372.813 83.0303 373.562Z" fill="#F8F5E7" stroke="black"/>
<path d="M102.132 409.203C101.774 408.068 100.901 407.803 100.226 407.712C99.2219 407.578 98.6125 409.724 99.2675 411.218C99.7734 412.371 101.108 413.251 101.656 413.113C102.524 412.895 102.551 410.535 102.132 409.203Z" fill="#F8F5E7" stroke="black"/>
<path d="M54.5801 421.95C43.2923 425.004 43.0526 435.53 41.5949 436.149C40.1372 436.769 34.4054 432.918 27.9359 436.962C21.4665 441.006 20.506 447.826 20.7618 452.125C21.5725 465.751 31.6619 473.323 39.7114 478.212C52.4252 485.934 73.0067 491.064 76.1467 487.699C80.143 483.417 81.1959 469.571 80.301 454.523C80.1988 452.804 81.7274 453.13 81.8242 451.773L81.8265 451.74C81.8876 450.885 81.9127 450.533 81.3252 449.055C80.0376 445.817 78.2154 447.815 77.5692 445.459C77.3569 444.685 78.2035 443.398 77.9085 442.656C76.5202 439.164 75.0482 442.775 74.2997 438.698C73.9755 436.932 75.7503 436.716 75.4261 434.95C75.1767 433.591 74.6265 430.014 73.3404 428.242C72.3929 426.937 69.9095 427.864 68.7013 426.812C67.8119 426.037 61.3056 420.13 54.5801 421.95Z" fill="#F8F5E7" stroke="black"/>
<path d="M124.11 419.555C114.079 413.967 107.267 426.838 105.803 427.036C103.609 427.333 96.6299 416.696 87.0301 420.696C77.0308 424.863 80.2377 437.5 85.3176 446.22C91.9862 457.668 106.996 470.756 110.044 470.336C113.092 469.915 121.896 458.316 127.575 447.265C132.454 437.772 134.754 425.485 124.11 419.555Z" fill="#F2E9C8" stroke="black"/>
<path d="M56.6669 426.92C47.7703 427.802 46.7083 439.902 45.1079 441.328C43.5075 442.754 33.3088 434.011 27.6285 444.223C21.9482 454.434 28.5359 464.97 35.8982 470.815C46.52 479.248 69.6294 485.69 72.7132 482.927C74.933 480.939 77.8497 460.001 74.2226 448.741C70.499 437.183 65.9397 426.001 56.6669 426.92Z" fill="#F2E9C8" stroke="black"/>
<path d="M98.4219 405.605C97.4154 404.621 97.2851 404.63 97.3318 404.556C97.4876 404.308 97.6848 404.26 97.9538 404.182C98.1944 404.112 98.5922 404.152 98.5922 404.152C98.5922 404.152 99.4048 404.58 99.9342 405.464C100.548 406.488 100.719 408.521 100.719 408.521C100.212 408.887 99.9316 408.885 99.4426 408.582C99.4263 408.239 99.4284 406.589 98.4219 405.605Z" fill="#F8F5E7" stroke="black"/>
<path d="M97.4299 380.297C96.6299 379.097 96.2999 379.113 96.3532 379.029C96.5312 378.748 96.7451 378.694 97.0375 378.605C97.2989 378.526 97.7246 378.569 97.7246 378.569C97.7246 378.569 98.5794 379.053 99.1105 380.052C99.7263 381.211 99.8237 383.513 99.8237 383.513C99.2633 383.927 98.9617 383.926 98.4494 383.583C98.4465 383.195 98.2299 381.497 97.4299 380.297Z" fill="#F8F5E7" stroke="black"/>
<path d="M44.8151 458.774C44.8151 455.192 42.1739 448.233 42.1739 448.233C42.1739 448.233 46.5131 454.462 48.777 454.941C50.0858 455.218 54.0594 451.826 54.0594 451.826C54.0594 451.826 50.6478 458.055 50.4749 460.69C50.2548 464.044 55.38 473.387 55.38 473.387C55.38 473.387 50.4749 465.002 47.645 463.805C45.1586 462.752 40.2874 463.805 40.2874 463.805C40.2874 463.805 44.8151 461.409 44.8151 458.774Z" fill="#FFE68F" stroke="black"/>
<path d="M62.3395 460.778C62.3395 458.51 60.7254 454.102 60.7254 454.102C60.7254 454.102 63.3771 458.047 64.7606 458.351C65.5605 458.526 67.9888 456.378 67.9888 456.378C67.9888 456.378 65.9039 460.323 65.7982 461.992C65.6637 464.116 68.7958 470.033 68.7958 470.033C68.7958 470.033 65.7982 464.723 64.0689 463.964C62.5494 463.298 59.5725 463.964 59.5725 463.964C59.5725 463.964 62.3395 462.447 62.3395 460.778Z" fill="#FFE68F" stroke="black"/>
<path d="M71.0503 378.008C70.926 377.105 71.3941 376.318 72.2503 376.008C73.2353 375.65 74.3992 376.19 74.6503 377.208C74.8046 377.833 74.6348 378.291 74.2503 378.808C73.914 379.259 73.6065 379.519 73.0503 379.608C72.0626 379.765 71.1869 378.998 71.0503 378.008Z" fill="#F8F5E7" stroke="black"/>
<path d="M67.0506 382.807C66.9262 381.905 67.3943 381.118 68.2506 380.808C69.2356 380.45 70.3995 380.99 70.6505 382.008C70.8048 382.633 70.635 383.091 70.2505 383.607C69.9143 384.059 69.6067 384.319 69.0505 384.407C68.0628 384.565 67.1872 383.798 67.0506 382.807Z" fill="#F8F5E7" stroke="black"/>
<path d="M63.0508 387.607C62.9265 386.705 63.3946 385.918 64.2508 385.607C65.2358 385.25 66.3997 385.79 66.6508 386.807C66.805 387.433 66.6353 387.891 66.2508 388.407C65.9145 388.859 65.607 389.119 65.0508 389.207C64.0631 389.365 63.1874 388.598 63.0508 387.607Z" fill="#F8F5E7" stroke="black"/>
<path d="M57.451 387.607C57.3266 386.705 57.7947 385.918 58.6509 385.607C59.636 385.25 60.7999 385.79 61.0509 386.807C61.2052 387.433 61.0354 387.891 60.6509 388.407C60.3147 388.859 60.0071 389.119 59.4509 389.207C58.4632 389.365 57.5875 388.598 57.451 387.607Z" fill="#F8F5E7" stroke="black"/>
<path d="M51.8511 385.207C51.7268 384.305 52.1949 383.518 53.0511 383.207C54.0361 382.85 55.2 383.39 55.451 384.407C55.6053 385.033 55.4356 385.491 55.0511 386.007C54.7148 386.459 54.4073 386.719 53.8511 386.807C52.8634 386.965 51.9877 386.198 51.8511 385.207Z" fill="#F8F5E7" stroke="black"/>
<path d="M47.0511 381.208C46.9267 380.305 47.3948 379.518 48.251 379.208C49.2361 378.85 50.4 379.39 50.651 380.408C50.8053 381.033 50.6355 381.491 50.251 382.007C49.9148 382.459 49.6072 382.719 49.051 382.807C48.0633 382.965 47.1876 382.198 47.0511 381.208Z" fill="#F8F5E7" stroke="black"/>
<path d="M697.5 274.279C700.747 271.737 706.468 273.211 706.468 273.211L714.714 251.745L737.291 252.207L727.5 278.5C727.5 278.5 727.768 279.748 727.5 281.5C727.232 283.252 725.692 285.33 723.5 286C721.308 286.67 718.065 286.925 716 285.5C713.956 284.09 714.235 280.634 716 279C718.892 276.321 724.381 276.934 724.381 276.934L731.147 259.321L715.38 258.318L709.249 274.279C709.249 274.279 708.562 276.135 708.5 277.5C708.429 279.08 707.82 280.996 705.5 282C702.125 283.46 698.065 282.699 696 280C695.008 278.703 695.53 275.822 697.5 274.279Z" fill="#FFA397" stroke="black"/>
<path d="M355.764 35.877C357.902 32.3507 363.776 31.7071 363.776 31.7071L363.9 8.71206L385.181 1.16165L385.319 29.2182C385.319 29.2182 386.01 30.2908 386.379 32.0244C386.749 33.7581 386.042 36.2467 384.229 37.648C382.415 39.0493 379.472 40.4348 377.036 39.832C374.626 39.2354 373.665 35.9046 374.738 33.7518C376.496 30.2235 381.848 28.8565 381.848 28.8565L381.95 9.98873L366.846 14.6243L366.754 31.7232C366.754 31.7232 366.767 33.7022 367.192 35.0004C367.684 36.5031 367.792 38.5113 365.977 40.2704C363.337 42.8295 359.269 43.5528 356.384 41.7584C354.997 40.8958 354.467 38.0165 355.764 35.877Z" fill="#FF8795" stroke="black"/>
<path d="M142.412 282.94L145.911 260.207C145.911 260.207 147.795 259.183 149.105 259.181C151.817 259.177 152.012 262.478 154.502 263.553C156.833 264.56 160.927 264.542 160.927 264.542C160.927 264.542 156.874 268.437 153.818 268.001C151.736 267.704 148.192 265.111 148.192 265.111L144.844 286.855C144.844 286.855 141.955 292.481 137.013 291.72C133.554 291.188 130.741 289.743 130.703 286.702C130.666 283.661 132.452 281.912 135.151 280.81C137.851 279.708 142.412 282.94 142.412 282.94Z" fill="#E2C2EE" stroke="black"/>
<path d="M500.634 68.8726L500.127 45.8782C500.127 45.8782 501.803 44.5421 503.093 44.3124C505.764 43.8367 506.529 47.0529 509.169 47.6793C511.638 48.2655 515.667 47.536 515.667 47.536C515.667 47.536 512.353 52.0763 509.268 52.1782C507.166 52.2476 503.225 50.311 503.225 50.311L503.71 72.3057C503.71 72.3057 501.843 78.3483 496.844 78.4585C493.345 78.5356 490.324 77.602 489.758 74.6138C489.192 71.6256 490.647 69.5929 493.114 68.0382C495.58 66.4834 500.634 68.8726 500.634 68.8726Z" fill="#E2C2EE" stroke="black"/>
<path d="M695.383 248.84L689.093 226.717C689.093 226.717 690.378 225.001 691.568 224.454C694.033 223.32 695.585 226.239 698.297 226.18C700.835 226.124 704.549 224.402 704.549 224.402C704.549 224.402 702.488 229.631 699.527 230.508C697.511 231.105 693.209 230.225 693.209 230.225L699.225 251.387C699.225 251.387 698.943 257.705 694.133 259.072C690.767 260.029 687.607 259.888 686.306 257.139C685.005 254.39 685.901 252.056 687.895 249.929C689.89 247.803 695.383 248.84 695.383 248.84Z" fill="#8DCFFF" stroke="black"/>
<path d="M45.531 282.141C39.0687 286.277 40.531 301.141 40.531 301.141C40.531 301.141 18.7226 303.613 18.031 313.641C17.031 328.141 40.531 323.141 40.531 323.141C40.531 323.141 32.5307 340.641 46.531 345.141C58.5307 348.997 68.5307 329.641 68.5307 329.641C68.5307 329.641 90.0307 340.641 95.031 325.141C97.3256 318.028 82.0307 310.141 82.0307 310.141C82.0307 310.141 98.1242 298.57 91.531 290.641C83.2156 280.641 67.5307 291.141 67.5307 291.141C67.5307 291.141 58.031 274.141 45.531 282.141Z" fill="#FFA497" stroke="black"/>
<path d="M56.0315 300.641C59.75 299.496 65.2559 299.914 68.0315 302.641C71.696 306.24 72.1218 310.205 69.5315 314.641C66.3423 320.102 57.8428 324.073 52.531 320.641C49.0713 318.405 46.3549 314.704 47.0315 310.641C47.531 307.641 49.531 302.641 56.0315 300.641Z" fill="#FFE68F" stroke="black"/>
<path d="M424.967 50.0177C417.55 44.4015 416.489 29.1337 424.967 25.5098C432.556 22.2661 436.871 22.782 444.628 22.2661C460.486 21.2116 484.295 23.3474 484.985 27.6723C485.675 31.9972 461.967 40.5944 446.008 45.3324C437.926 47.7317 427.382 51.846 424.967 50.0177Z" fill="#99DF79" stroke="black"/>
<path d="M431.029 43.9632C426.067 40.4086 425.357 30.7456 431.029 28.452C436.105 26.399 438.992 26.7256 444.181 26.399C454.789 25.7316 470.717 27.0833 471.178 29.8206C471.64 32.5579 455.78 37.9991 445.104 40.9978C439.698 42.5163 432.644 45.1203 431.029 43.9632Z" fill="white" stroke="black"/>
<path d="M435.5 33.5L428 36L427 36.5L427.5 39L437 36L441 33L446.5 35L472 29L468 27L446 31.5L439.5 29.5L435.5 33.5Z" fill="#99DF79" stroke="black"/>
<path d="M372.85 241.722C372.85 233.207 368.939 224.167 370.28 220.769C371.621 217.371 381.829 214.941 387.412 214.257C393.277 213.537 394.773 214.29 399.996 217.032C404.069 219.171 406.801 226.181 405.921 232.956C405.121 239.106 400.736 243.165 395.552 245.387C394.19 245.971 406.828 263.524 412.824 270.885C414.362 272.773 402.062 274.199 400.261 273.434C396.263 271.735 387.412 246.868 387.412 246.868H382.591C382.591 246.868 382.843 263.241 385.413 274C386.002 276.464 375.134 276.832 372.85 274.85C369.452 271.901 372.85 250.236 372.85 241.722Z" fill="white" stroke="black"/>
<path d="M382.961 237.611C381.48 237.611 379.785 227.789 380.739 226.131C381.665 224.522 386.871 222.263 390.371 222.926C392.983 223.421 394.531 224.546 395.78 226.906C397.16 229.514 396.735 232.211 395.78 234.532C394.175 238.435 385.825 237.611 382.961 237.611Z" fill="#FFD3E3" stroke="black"/>
<path d="M506.255 483.75C508.141 489.437 510.432 491.05 514.746 492.656C520.491 494.794 529.433 493.609 534.68 490.429C539.045 487.783 541.356 482.18 540.955 477.071C540.401 470.022 533.572 466.682 533.572 466.682C533.572 466.682 533.666 444.676 525.266 447.202C517.433 449.558 523.236 466.125 523.236 466.125L518.437 466.682C518.437 466.682 516.474 446.667 508.47 449.057C500.662 451.388 508.47 470.022 508.47 470.022C508.47 470.022 504.225 477.628 506.255 483.75Z" fill="white" stroke="black"/>
<circle cx="515.105" cy="483.632" r="1.26316" fill="black"/>
<circle cx="533.421" cy="481.105" r="1.26316" fill="black"/>
<path d="M523.868 485.97L525.66 486.948M527.453 487.927L525.66 486.948M525.66 486.948L527.102 485.501L524.219 488.395" stroke="black"/>
<path d="M161.876 226.103L163.259 215.27L172.122 213.483L181.436 213.781L181.021 226.717L174.178 230.124L171.057 230.541L161.876 226.103Z" fill="#FFEACB"/>
<path d="M171.057 230.541L161.876 226.103L163.259 215.27L172.122 213.483M171.057 230.541L172.122 213.483M171.057 230.541L174.178 230.124L181.021 226.717L181.436 213.781L172.122 213.483" stroke="black"/>
<path d="M171.724 225.901L171.591 230.041C171.591 230.041 174.283 228.904 176.314 228.12C178.172 227.404 181.015 226.901 181.015 226.901L181.121 223.613C181.121 223.613 177.909 223.504 175.93 223.964C173.99 224.415 171.724 225.901 171.724 225.901Z" fill="white" stroke="black"/>
<path d="M171.198 226.156L171.074 230.024C171.074 230.024 168.42 228.167 166.5 227.296C163.436 225.907 161.87 226.287 161.87 226.287L162.47 223.725C162.47 223.725 165.179 223.377 167.127 223.875C169.037 224.362 171.198 226.156 171.198 226.156Z" fill="white" stroke="black"/>
<path d="M152.246 216.219C143.15 215.928 159.743 199.263 159.743 199.263L182.759 191.974C182.759 191.974 200.207 213.485 192.161 217.398C190.482 218.215 183.109 214.849 183.109 214.849C183.109 214.849 180.517 220.898 176.745 221.354C174.527 221.623 170.487 216.02 170.487 216.02C170.487 216.02 167.218 221.049 163.957 221.284C160.02 221.567 158.119 214.047 158.119 214.047C158.119 214.047 152.869 216.239 152.246 216.219Z" fill="#F14949"/>
<path d="M158.119 214.047C158.119 214.047 152.869 216.239 152.246 216.219C143.15 215.928 159.743 199.263 159.743 199.263L182.759 191.974C182.759 191.974 200.207 213.485 192.161 217.398C190.482 218.215 183.109 214.849 183.109 214.849M158.119 214.047C158.119 214.047 160.02 221.567 163.957 221.284C167.218 221.049 170.487 216.02 170.487 216.02M158.119 214.047L160.855 209.495M170.487 216.02C170.487 216.02 174.527 221.623 176.745 221.354C180.517 220.898 183.109 214.849 183.109 214.849M170.487 216.02L170.603 212.398M183.109 214.849L181.536 210.677" stroke="black"/>
<path d="M157.467 182.123C160.207 179.062 164.008 175.269 164.008 175.269L181.946 174.432C181.946 174.432 186.844 178.553 189.057 182.665C190.088 184.582 193.798 190.18 192.905 194.09C192.012 198 172.53 205.208 172.53 205.208C172.53 205.208 158.968 201.006 155.39 197.595C153 195.317 155.827 183.953 157.467 182.123Z" fill="#F14949"/>
<path d="M172.53 205.208C172.53 205.208 158.968 201.006 155.39 197.595C153 195.317 155.827 183.953 157.467 182.123C160.207 179.062 164.008 175.269 164.008 175.269L181.946 174.432C181.946 174.432 186.844 178.553 189.057 182.665C190.088 184.582 193.798 190.18 192.905 194.09C192.012 198 172.53 205.208 172.53 205.208ZM172.53 205.208L172.895 193.825M172.895 193.825L166.141 190.877M172.895 193.825L179.854 190.375" stroke="black"/>
<path d="M202.096 161.488L194.012 157.748L190.232 160.044L195.208 169.64L202.096 161.488Z" fill="#693434" stroke="black"/>
<path d="M187.969 155.467L187.72 163.223L190.108 164.335C190.108 164.335 190.125 163.818 191.627 162.313C193.13 160.808 193.999 159.461 196.119 158.316C196.119 158.316 199.028 156.417 198.188 154.242C197.544 152.574 194.89 153.166 194.364 152.567C193.896 152.034 193.459 149.027 191.575 148.854C189.889 148.7 189.884 149.247 189.087 150.845C188.265 152.491 188.066 152.438 187.969 155.467Z" fill="#B30E0E" stroke="black"/>
<path d="M160.714 165.463C160.714 165.463 159.939 159.937 160.996 156.667C161.691 154.516 163.749 151.576 163.749 151.576L177.269 149.937C177.269 149.937 182.623 152.323 184.347 155.344C185.88 158.03 185.651 163.156 185.651 163.156L186.141 164C186.141 164 188.17 162.308 189.807 162.771C191.6 163.278 192.401 164.671 192.795 166.493C193.189 168.315 193.439 169.274 192.145 170.616C190.538 172.282 188.473 172.052 186.937 171.484C186.777 171.884 186.103 172.653 185.853 173.003C182.598 177.561 178.426 178.463 174.27 178.847C172.208 179.038 165.991 178.582 163.47 176.429C162.762 175.825 160.448 173.742 160.448 173.742C160.448 173.742 156.489 174.91 154.773 173.042C153.605 171.77 153.077 170.558 153.354 168.853C153.632 167.136 154.37 165.736 156.057 165.314C157.485 164.956 159.646 166.465 159.646 166.465L159.792 166.586C160.245 165.903 160.714 165.463 160.714 165.463Z" fill="#FFEACB"/>
<path d="M160.448 173.742C159.425 171.687 159.48 171.639 159.029 169.553C158.789 168.445 159.28 167.36 159.792 166.586M160.448 173.742C160.448 173.742 162.762 175.825 163.47 176.429C165.991 178.582 172.208 179.038 174.27 178.847C178.426 178.463 182.598 177.561 185.853 173.003C186.103 172.653 186.777 171.884 186.937 171.484M160.448 173.742C160.448 173.742 156.489 174.91 154.773 173.042C153.605 171.77 153.077 170.558 153.354 168.853C153.632 167.136 154.37 165.736 156.057 165.314C157.485 164.956 159.646 166.465 159.646 166.465L159.792 166.586M186.937 171.484C188.022 169.965 187.745 168.56 187.587 167.361C187.389 165.849 186.141 164 186.141 164M186.937 171.484C188.473 172.052 190.538 172.282 192.145 170.616C193.439 169.274 193.189 168.315 192.795 166.493C192.401 164.671 191.6 163.278 189.807 162.771C188.17 162.308 186.141 164 186.141 164M186.141 164L185.651 163.156C185.651 163.156 185.88 158.03 184.347 155.344C182.623 152.323 177.269 149.937 177.269 149.937L163.749 151.576C163.749 151.576 161.691 154.516 160.996 156.667C159.939 159.937 160.714 165.463 160.714 165.463C160.714 165.463 160.245 165.903 159.792 166.586" stroke="black"/>
<path d="M165.428 172.932C164.395 172.295 165.146 169.838 165.146 169.838L168.943 171.571C168.943 171.571 167.631 174.29 165.428 172.932Z" fill="#F14949"/>
<path d="M182.675 168.24C182.675 168.24 179.863 171.615 174.192 172.132C172.178 172.316 168.943 171.571 168.943 171.571M168.943 171.571L165.146 169.838C165.146 169.838 164.395 172.295 165.428 172.932C167.631 174.29 168.943 171.571 168.943 171.571Z" stroke="black"/>
<path d="M143.335 164.043L151.414 160.293L155.197 162.585L150.232 172.187L143.335 164.043Z" fill="#693434" stroke="black"/>
<path d="M157.357 157.068L157.109 164.83L154.488 165.782C154.488 165.782 154.505 165.264 153.002 163.662C151.5 162.06 150.662 160.657 148.478 159.373C148.478 159.373 145.501 157.283 146.541 155.167C147.339 153.544 150.13 154.311 150.73 153.748C151.264 153.247 151.93 150.273 153.951 150.225C155.759 150.183 155.728 150.73 156.472 152.378C157.239 154.077 157.455 154.037 157.357 157.068Z" fill="#B30E0E" stroke="black"/>
<path d="M171.544 150.79L170.36 155.413L161.53 156.166L160.73 164.946L159.662 165.948L157.609 165.364L157.175 162.76L156.306 157.552C156.306 157.552 155.819 153.568 156.522 150.826C157.307 147.76 158.526 145.814 160.894 143.714C163.908 141.042 171.375 139.907 171.375 139.907C176.225 140.063 179.137 140.156 183.21 142.359C187.283 144.561 187.412 146.595 188.619 151.338C189.771 155.861 187.737 162.705 187.737 162.705L186.168 163.172L182.811 154.777L173.998 155.012L171.544 150.79Z" fill="#693434" stroke="black"/>
<path d="M162.449 165.143C162.449 165.143 161.361 161.606 162.95 160.355C164.57 159.081 166.411 159.606 167.756 161.17C168.843 162.434 169.026 164.694 169.026 164.694L162.449 165.143Z" fill="white" stroke="black"/>
<path d="M164.452 161.957C163.968 160.906 163.45 160.889 163.45 160.889L162.382 161.891L162.8 165.012L165.404 164.578C165.404 164.578 165.065 163.288 164.452 161.957Z" fill="black" stroke="black"/>
<path d="M182.729 163.587C182.729 163.587 183.681 159.984 181.644 158.883C180.253 158.131 178.008 158.573 176.902 160.335C176.008 161.76 176.152 164.061 176.152 164.061L182.729 163.587Z" fill="white" stroke="black"/>
<path d="M178.99 160.87L177.988 159.802L176.904 161.321L176.837 163.391L179.942 163.49C179.942 163.49 179.491 161.404 178.99 160.87Z" fill="black" stroke="black"/>
<path d="M169.339 235.666C165.183 236.05 158.439 236.352 154.9 233.649C153.068 232.249 155.712 229.256 157.67 228.04C159.256 227.055 162.41 225.602 162.41 225.602C162.41 225.602 165.52 226.443 167.017 227.304C168.77 228.312 171.057 230.541 171.057 230.541C171.057 230.541 173.251 229.238 174.746 228.588C177.091 227.568 181.021 226.717 181.021 226.717C181.021 226.717 182.356 228.351 183.542 228.87C186.096 229.988 188.116 231.607 187.515 234.177C186.96 236.556 181.206 237.083 181.206 237.083C181.206 237.083 177.05 237.467 172.961 235.782C171.511 235.185 171.165 232.465 171.083 231.196C171.103 232.544 170.961 235.516 169.339 235.666Z" fill="#414141"/>
<path d="M171.057 230.541C171.057 230.541 168.77 228.312 167.017 227.304C165.52 226.443 162.41 225.602 162.41 225.602C162.41 225.602 159.256 227.055 157.67 228.04C155.712 229.256 153.068 232.249 154.9 233.649C158.439 236.352 165.183 236.05 169.339 235.666C171.441 235.471 171.057 230.541 171.057 230.541ZM171.057 230.541C171.057 230.541 171.054 234.997 172.961 235.782C177.05 237.467 181.206 237.083 181.206 237.083C181.206 237.083 186.96 236.556 187.515 234.177C188.116 231.607 186.096 229.988 183.542 228.87C182.356 228.351 181.021 226.717 181.021 226.717C181.021 226.717 177.091 227.568 174.746 228.588C173.251 229.238 171.057 230.541 171.057 230.541Z" stroke="black"/>
<path d="M163.846 229.274C162.685 227.996 159.757 227.589 159.757 227.589L157.654 228.557C157.654 228.557 159.424 229.361 160.708 230.209C161.789 230.923 163.229 232.362 163.229 232.362L164.831 230.859C164.831 230.859 164.336 229.813 163.846 229.274Z" fill="white" stroke="black"/>
<path d="M178.334 229.739C179.576 228.537 182.524 228.319 182.524 228.319L184.56 229.421C184.56 229.421 182.742 230.109 181.406 230.873C180.282 231.516 178.752 232.86 178.752 232.86L177.25 231.258C177.25 231.258 177.811 230.246 178.334 229.739Z" fill="white" stroke="black"/>
<path d="M168.991 198.361C169.148 196.107 170.216 192.185 170.216 192.185L172.246 193.483L171.865 205.362L168.783 204.57C168.783 204.57 168.836 200.588 168.991 198.361Z" fill="#B30E0E" stroke="black"/>
<path d="M175.182 198.56C175.17 196.3 174.339 192.835 174.339 192.835L172.236 193.803L171.854 205.704L174.992 204.769C174.992 204.769 175.194 200.792 175.182 198.56Z" fill="#B30E0E" stroke="black"/>
<path d="M654 302.5C657.641 311.8 658.164 317.453 657.5 328" stroke="black"/>
<path d="M668.674 466.804C671.995 454.753 674.813 433.229 674.813 433.229L692.501 444.326C692.501 444.326 686.225 463.342 685.064 471.32C684.268 476.789 689.181 480.847 688.408 483.652C688.143 484.616 686.949 484.997 686.214 484.084C685.773 483.536 685.516 482.855 685.516 482.855C685.516 482.855 685.871 484.686 684.852 485.265C683.833 485.843 682.694 485.38 681.96 484.468C681.518 483.92 681.261 483.238 681.261 483.238C681.261 483.238 681.399 483.973 680.381 484.552C679.362 485.13 678.323 484.577 677.488 483.755C676.793 483.069 676.308 482.392 676.308 482.392C676.308 482.392 676.602 482.811 676.042 483.356C675.192 484.185 673.017 483.041 673.017 483.041C673.017 483.041 666.009 478.399 666.333 473.42C666.545 470.154 667.805 469.96 668.674 466.804Z" fill="#FFEACB" stroke="black"/>
<path d="M695.55 469.023C696.704 460.67 699.333 447.764 699.333 447.764L719.559 444.002C719.559 444.002 715.266 456.416 712.402 464.331C710.802 468.753 708.915 473.224 708.25 475.634C707.188 479.491 710.031 482.348 711.162 485.772C711.475 486.717 710.942 487.682 710.016 488.049C708.868 488.505 707.739 486.903 707.739 486.903C707.739 486.903 706.418 488.327 705.279 488.3C704.141 488.273 703.135 486.672 703.135 486.672C703.135 486.672 702.259 487.843 701.29 487.72C700.322 487.596 699.146 486.091 699.146 486.091C699.146 486.091 698.403 487.057 697.301 487.139C695.637 487.263 694.966 485.865 693.843 484.63C689.719 480.094 694.712 475.097 695.55 469.023Z" fill="#FFEACB" stroke="black"/>
<path d="M658.951 411.743C661.816 411.136 665.93 408.999 665.93 408.999L670.869 415.546C670.869 415.546 665.271 418.643 660.864 417.976C657.942 417.533 655.429 416.997 653.284 415.369C651.848 414.278 652.323 413.094 653.117 412.211C654.612 410.548 656.715 412.218 658.951 411.743Z" fill="#FFEACB" stroke="black"/>
<path d="M743.248 422.677C740.723 421.193 737.497 417.863 737.497 417.863L730.739 422.509C730.739 422.509 735.068 427.219 739.459 427.982C742.37 428.488 744.925 428.775 747.474 427.91C749.182 427.331 749.107 426.057 748.633 424.967C747.741 422.917 745.218 423.835 743.248 422.677Z" fill="#FFEACB" stroke="black"/>
<path d="M673.164 388.693C680.445 378.691 697.316 372.349 712.514 377.266C722.829 380.603 730.168 385.14 735.365 394.697C742.408 407.649 741.511 421.569 734.005 434.305C725.926 448.014 712.681 454.17 697.097 451.467C682.221 448.886 673.61 443.255 667.287 430.094C660.09 415.114 664.264 400.918 673.164 388.693Z" fill="white" stroke="black"/>
<path d="M676.939 389.531C679.937 386.366 684.008 383.209 685.794 383.55C689.409 384.241 686.983 390.942 680.881 395.603C675.625 399.616 669.12 406.404 669.12 406.404C669.12 406.404 672.145 394.593 676.939 389.531Z" fill="#F53427" stroke="black"/>
<path d="M694.381 396.093C695.443 392.236 698.621 387.572 702.689 388.528C707.535 389.665 706.693 396.496 704.455 400.943C701.245 407.319 692.841 414.858 692.841 414.858C692.841 414.858 692.316 403.587 694.381 396.093Z" fill="#F53427" stroke="black"/>
<path d="M734.489 402.994C733.057 396.895 729.167 392.193 726.973 392.625C724.284 393.156 724.548 397.662 725.113 399.374C726.067 402.258 727.088 404.145 728.207 406.969C730.371 412.43 731.021 421.228 731.021 421.228C731.021 421.228 736.149 410.069 734.489 402.994Z" fill="#F53427" stroke="black"/>
<path d="M710.063 318.47C717.825 318.534 718.985 320.704 724.79 321.49C729.577 322.138 734.256 321.835 738.685 323.763C742.973 325.629 744.506 329.197 745.393 331.261L745.419 331.323C746.683 334.264 749.505 338.97 745.655 341.761C743.063 343.64 734.079 337.922 725.759 336.797C718.155 335.769 710.584 337.284 706.113 336.571C701.324 335.807 697.791 331.011 699.08 326.335C700.142 322.478 704.479 318.424 710.063 318.47Z" fill="#DBCFB8" stroke="black"/>
<path d="M695.488 375.134C699.139 378.825 704.544 382.461 712.743 384.037C720.444 385.517 724.868 386.163 731.474 381.937C737.14 378.312 743.618 366.094 747.204 353.079C750.338 341.706 751.418 334.011 744.121 324.742C736.821 315.47 715.828 310.723 705.026 316.045C691.511 322.703 686.583 333.537 685.69 348.577C685.084 358.783 689.404 368.981 695.488 375.134Z" fill="white" stroke="black"/>
<path d="M689.197 349.025C687.951 346.712 686.669 343.142 686.669 343.142C686.669 343.142 685.557 349.059 685.857 351.735C686.106 353.947 687.115 356.878 689.266 356.304C690.532 355.967 691.144 355.266 691.509 353.811C691.874 352.355 690.121 350.738 689.197 349.025Z" fill="#F53427" stroke="black"/>
<path d="M742.433 349.69C745.852 354.438 745.487 357.428 743.933 363.069C742.738 367.407 739.772 374.408 734.813 379.227C729.127 384.753 724.966 386.069 717.081 385.232C711.973 384.69 706.304 382.675 705.03 381.912C697.018 377.111 695.017 374.76 693.358 367.805C691.546 360.207 693.466 354.347 698.671 348.523C704.919 341.532 712.387 341.51 721.755 341.918C728.461 342.21 739.808 346.043 742.433 349.69Z" fill="#FFEACB" stroke="black"/>
<path d="M694.313 337.987C692.483 333.334 693.644 325.356 693.644 325.356C693.644 325.356 689.615 330.567 688.445 334.814C687.781 337.225 687.815 338.551 688.297 340.997C688.73 343.191 691.622 346.428 693.9 345.134C695.129 344.436 695.316 340.538 694.313 337.987Z" fill="#F53427" stroke="black"/>
<path d="M710.019 329.419C714.264 329.898 721.721 327.928 721.721 327.928C721.721 327.928 716.713 331.339 712.721 332.746C710.455 333.545 709.225 333.726 706.973 333.785C704.954 333.839 702.069 332.454 703.365 330.778C704.065 329.873 707.693 329.157 710.019 329.419Z" fill="black"/>
<path d="M741.781 335.205C737.408 334.034 731.851 330.661 731.851 330.661C731.851 330.661 735.941 334.145 738.44 337.226C739.917 339.047 741.44 340.014 743.502 340.523C745.351 340.98 747.619 340.374 746.844 338.502C746.425 337.492 743.929 335.779 741.781 335.205Z" fill="black"/>
<path d="M708.302 321.096C710.401 320.598 713.194 320.888 713.737 322.075C714.757 324.299 711.752 325.966 709.384 326.581C707.116 327.17 703.985 326.649 703.6 324.987C703.343 323.879 705.983 321.647 708.302 321.096Z" stroke="black"/>
<path d="M708.894 322.357C710.042 322.151 711.52 322.41 711.749 323.093C712.178 324.372 710.485 325.2 709.187 325.462C707.944 325.712 706.296 325.313 706.177 324.37C706.097 323.741 707.625 322.585 708.894 322.357Z" fill="black"/>
<path d="M739.118 325.956C738.115 325.362 736.547 325.082 736.093 325.642C735.244 326.69 736.715 328.017 737.839 328.716C738.917 329.385 740.556 329.39 740.997 328.549C741.291 327.988 740.227 326.613 739.118 325.956Z" fill="black"/>
<path d="M739.687 324.809C741.55 325.897 743.37 328.035 742.944 329.269C742.146 331.582 738.822 330.714 736.684 329.524C734.637 328.385 732.73 325.847 733.599 324.379C734.178 323.4 737.629 323.607 739.687 324.809Z" stroke="black"/>
<path d="M707.925 352.939C705.957 352.575 704.201 352.614 702.951 354.177C701.692 355.751 701.822 357.61 702.86 359.338C703.999 361.232 705.706 362.144 707.898 362.425C709.977 362.692 711.736 362.004 713.027 360.353C714.168 358.894 714.013 357.553 712.963 356.027C711.943 354.544 710.845 353.479 707.925 352.939Z" fill="white" stroke="black"/>
<path d="M710.098 354.203C708.844 353.972 707.714 354.059 706.86 355.367C705.999 356.684 706.024 358.187 706.636 359.555C707.307 361.054 708.375 361.739 709.776 361.897C711.104 362.046 712.256 361.431 713.14 360.051C713.92 358.832 713.864 357.749 713.238 356.545C712.629 355.376 711.958 354.547 710.098 354.203Z" fill="black"/>
<circle cx="711.249" cy="357.867" r="0.848491" transform="rotate(10.4668 711.249 357.867)" fill="white"/>
<path d="M735.204 360.489C737.122 360.632 738.743 361.098 739.523 362.856C740.308 364.627 739.732 366.322 738.345 367.674C736.824 369.156 735.014 369.585 732.908 369.311C730.911 369.05 729.446 367.98 728.649 366.13C727.946 364.495 728.418 363.287 729.767 362.126C731.078 360.998 732.358 360.276 735.204 360.489Z" fill="white" stroke="black"/>
<path d="M736.739 361.529C737.961 361.621 738.989 361.979 739.463 363.403C739.94 364.837 739.55 366.228 738.647 367.349C737.657 368.578 736.496 368.953 735.156 368.757C733.886 368.571 732.965 367.718 732.482 366.22C732.054 364.895 732.372 363.903 733.248 362.938C734.099 362 734.926 361.394 736.739 361.529Z" fill="black"/>
<circle cx="0.815313" cy="0.815313" r="0.815313" transform="matrix(-0.997211 -0.0746297 -0.0746297 0.997211 738.207 363.998)" fill="white"/>
<path d="M711 371.253C711 371.253 711.881 373.376 713.787 373.433C715.693 373.49 717.5 372.5 717.5 372.5C717.5 372.5 718.575 374.716 719.5 375C721.471 375.606 723.5 374 723.5 374" stroke="black"/>
</svg>
